<?xml version="1.0" encoding="utf-8"?>
<!-- Generator: Adobe Illustrator 16.0.0, SVG Export Plug-In . SVG Version: 6.00 Build 0)  -->
<!DOCTYPE svg PUBLIC "-//W3C//DTD SVG 1.1//EN" "http://www.w3.org/Graphics/SVG/1.1/DTD/svg11.dtd">
<svg version="1.1" id="Layer_3" xmlns="http://www.w3.org/2000/svg" xmlns:xlink="http://www.w3.org/1999/xlink" x="0px" y="0px"
	 width="32px" height="32px" viewBox="0 0 32 32" enable-background="new 0 0 32 32" xml:space="preserve">
<path id="Skype" d="M24.428,17.332c0.069-0.436,0.104-0.879,0.104-1.333c0-4.712-3.82-8.532-8.532-8.532
	c-0.453,0-0.898,0.037-1.332,0.105c-0.786-0.486-1.713-0.768-2.707-0.768c-2.848,0-5.156,2.309-5.156,5.157
	c0,0.993,0.282,1.92,0.768,2.708C7.505,15.104,7.468,15.547,7.468,16c0,4.713,3.82,8.532,8.531,8.532
	c0.453,0,0.899-0.035,1.333-0.104c0.787,0.486,1.713,0.768,2.707,0.768c2.848,0,5.156-2.309,5.156-5.156
	C25.195,19.045,24.914,18.118,24.428,17.332z M20.051,19.881c-0.361,0.52-0.891,0.926-1.584,1.217
	c-0.694,0.293-1.515,0.439-2.462,0.439c-1.136,0-2.076-0.199-2.818-0.601c-0.526-0.288-0.954-0.673-1.283-1.153
	c-0.33-0.481-0.497-0.953-0.497-1.412c0-0.271,0.104-0.507,0.305-0.699c0.203-0.193,0.465-0.291,0.774-0.291
	c0.253,0,0.471,0.077,0.647,0.229c0.176,0.15,0.323,0.37,0.444,0.66c0.145,0.336,0.301,0.615,0.468,0.84
	c0.166,0.221,0.399,0.406,0.702,0.551c0.299,0.145,0.697,0.217,1.195,0.217c0.681,0,1.232-0.148,1.654-0.438
	c0.424-0.294,0.627-0.651,0.627-1.082c0-0.345-0.109-0.618-0.334-0.831c-0.227-0.217-0.52-0.381-0.885-0.495
	c-0.365-0.116-0.855-0.239-1.471-0.368c-0.825-0.18-1.516-0.39-2.075-0.631c-0.56-0.241-1.006-0.572-1.336-0.989
	c-0.331-0.422-0.496-0.946-0.496-1.566c0-0.592,0.174-1.121,0.523-1.582c0.349-0.462,0.853-0.815,1.511-1.062
	c0.656-0.246,1.428-0.369,2.312-0.369c0.707,0,1.319,0.082,1.837,0.245c0.516,0.164,0.946,0.381,1.291,0.652
	c0.342,0.271,0.593,0.556,0.752,0.856c0.16,0.301,0.24,0.595,0.24,0.882c0,0.266-0.104,0.508-0.305,0.72
	c-0.201,0.212-0.459,0.321-0.76,0.319c-0.271,0-0.484-0.062-0.632-0.195c-0.144-0.128-0.294-0.332-0.458-0.616
	c-0.205-0.397-0.453-0.706-0.74-0.926c-0.279-0.217-0.742-0.331-1.384-0.329c-0.594,0-1.07,0.121-1.428,0.359
	c-0.361,0.242-0.534,0.521-0.535,0.85c0,0.205,0.06,0.379,0.178,0.527c0.121,0.149,0.289,0.279,0.505,0.388
	c0.216,0.11,0.436,0.197,0.657,0.258c0.223,0.063,0.594,0.155,1.109,0.276c0.646,0.139,1.232,0.295,1.759,0.464
	c0.525,0.17,0.975,0.376,1.345,0.621c0.374,0.244,0.665,0.556,0.874,0.932c0.209,0.377,0.314,0.836,0.314,1.377
	C20.595,18.775,20.413,19.361,20.051,19.881z"/>
<circle fill="none" stroke="#000000" stroke-miterlimit="10" cx="16" cy="16" r="15"/>
</svg>
