<?xml version="1.0" encoding="utf-8"?>
<!-- Generator: Adobe Illustrator 16.0.0, SVG Export Plug-In . SVG Version: 6.00 Build 0)  -->
<!DOCTYPE svg PUBLIC "-//W3C//DTD SVG 1.1//EN" "http://www.w3.org/Graphics/SVG/1.1/DTD/svg11.dtd">
<svg version="1.1" id="Layer_2" xmlns="http://www.w3.org/2000/svg" xmlns:xlink="http://www.w3.org/1999/xlink" x="0px" y="0px"
	 width="32px" height="32px" viewBox="0 0 32 32" enable-background="new 0 0 32 32" xml:space="preserve">
<g>
	<path id="Behance" d="M24.159,11.485h-5.07v-1.26h5.071L24.159,11.485L24.159,11.485z M15.712,16.65
		c0.327,0.507,0.491,1.124,0.491,1.846c0,0.747-0.186,1.417-0.56,2.011c-0.239,0.391-0.535,0.722-0.891,0.987
		c-0.401,0.308-0.875,0.521-1.421,0.634c-0.548,0.112-1.14,0.17-1.779,0.17H5.879V9.703h6.083c1.533,0.024,2.621,0.469,3.262,1.341
		c0.385,0.536,0.576,1.178,0.576,1.924c0,0.77-0.193,1.386-0.582,1.854c-0.216,0.262-0.536,0.501-0.959,0.717
		C14.9,15.773,15.387,16.143,15.712,16.65z M8.785,14.667h2.665c0.548,0,0.991-0.103,1.332-0.312c0.34-0.208,0.51-0.577,0.51-1.107
		c0-0.586-0.225-0.975-0.676-1.162c-0.388-0.13-0.884-0.197-1.486-0.197H8.785V14.667z M13.548,18.315
		c0-0.654-0.268-1.105-0.801-1.349c-0.299-0.138-0.72-0.21-1.26-0.213H8.785v3.356h2.662c0.547,0,0.969-0.072,1.275-0.221
		C13.272,19.616,13.548,19.091,13.548,18.315z M26.042,16.268c0.062,0.412,0.089,1.01,0.076,1.792h-6.567
		c0.035,0.905,0.349,1.54,0.942,1.903c0.358,0.227,0.792,0.338,1.302,0.338c0.534,0,0.972-0.136,1.308-0.414
		c0.185-0.147,0.345-0.355,0.484-0.618h2.408c-0.062,0.535-0.353,1.078-0.874,1.629c-0.807,0.877-1.939,1.316-3.393,1.316
		c-1.202,0-2.261-0.368-3.178-1.109c-0.917-0.742-1.376-1.944-1.376-3.614c0-1.564,0.413-2.762,1.241-3.596
		c0.831-0.835,1.903-1.25,3.227-1.25c0.785,0,1.493,0.14,2.122,0.421s1.149,0.726,1.557,1.336
		C25.692,14.938,25.931,15.56,26.042,16.268z M23.673,16.502c-0.045-0.627-0.255-1.101-0.632-1.426
		c-0.373-0.325-0.841-0.488-1.398-0.488c-0.605,0-1.074,0.175-1.405,0.518c-0.337,0.342-0.545,0.808-0.631,1.397L23.673,16.502
		L23.673,16.502z"/>
	<circle fill="none" stroke="#000000" stroke-miterlimit="10" cx="16" cy="16" r="15"/>
</g>
</svg>
