<?xml version="1.0" standalone="no"?>
<!DOCTYPE svg PUBLIC "-//W3C//DTD SVG 1.1//EN" "http://www.w3.org/Graphics/SVG/1.1/DTD/svg11.dtd">
<svg width="100%" height="100%" viewBox="0 0 400 400" version="1.1" xmlns="http://www.w3.org/2000/svg" xmlns:xlink="http://www.w3.org/1999/xlink" xml:space="preserve" style="fill-rule:evenodd;clip-rule:evenodd;stroke-linecap:round;stroke-linejoin:round;stroke-miterlimit:1.41421;">
    <g id="Big">
        <path d="M251.439,50.786C225.308,56.007 204.976,68.484 196.478,95.768C196.178,96.738 195.738,97.659 195.172,98.503C193.867,100.47 191.302,104.296 189.377,107.168C187.784,109.544 187.031,112.384 187.239,115.238C187.48,118.552 187.769,122.526 187.769,122.526C182.398,126.197 180.078,131.685 179.386,138.143" style="fill:none;stroke-width:1px;stroke:black;"/>
        <path d="M190.454,133.129C190.375,136.246 188.533,138.777 185.866,141.034C185.747,141.135 185.63,141.238 185.515,141.343C174.509,151.411 164.97,159.688 156.184,167.044C152.722,169.935 151.285,174.594 152.518,178.933C153.75,183.273 157.421,186.48 161.887,187.119C163.682,187.379 164.8,187.539 164.8,187.539C166.361,188.336 166.402,189.504 165.403,190.928C164.481,195.03 162.446,197.259 160.1,199.582C158.881,200.804 158.638,202.694 159.509,204.184C164.187,211.662 175.067,217.493 184.767,222.268" style="fill:none;stroke-width:1px;stroke:black;"/>
        <path d="M161.444,206.672C158.106,211.243 156.57,215.573 159.727,219.272C161.194,224.032 160.2,227.738 157.72,230.807C157.501,231.074 157.314,231.365 157.162,231.675C154.556,237.148 154.713,244.37 154.827,250.129" style="fill:none;stroke-width:1px;stroke:black;"/>
        <path d="M74.775,170.472C84.07,169.437 95.107,172.553 109.223,183.009C110.126,183.678 110.867,184.541 111.394,185.533C115.22,192.671 120.788,198.776 128.662,203.516C130.573,204.66 131.707,206.757 131.617,208.982C131.313,212.369 130.308,215.491 129.409,218.253C129.132,219.124 128.529,219.855 127.727,220.294C123.454,222.543 123.585,226.111 123.079,230.254C119.872,233.885 116.655,236.218 113.433,237.895C112.324,238.461 111.667,239.643 111.77,240.884C111.874,242.126 112.718,243.182 113.906,243.557C119.837,245.472 125.111,247.89 125.542,253.513C130.543,254.967 133.27,259.98 132.405,264.739" style="fill:none;stroke-width:1px;stroke:black;"/>
        <path d="M77.748,176.218C76.093,170.056 70.679,166.108 69.877,161.289C63.471,122.766 44.153,136.803 37.551,183.813C16.868,199.962 25.976,229.784 33.883,259.054C21.958,274.943 14.981,292.814 15.504,313.691" style="fill:none;stroke-width:1px;stroke:black;"/>
        <path d="M108.56,286.786C108.56,286.786 125.529,269.419 137.927,260.593C150.326,251.768 167.501,243.616 175.244,233.975C201.206,201.646 225.768,217.613 207.403,245.468C203.978,250.663 184.467,266.572 168.296,284.611C152.903,301.783 141,325.37 143.065,329.768" style="fill:none;stroke-width:1px;stroke:black;"/>
        <path d="M183.851,268.784C224.629,269.894 266.602,269.709 291.059,230.804" style="fill:none;stroke-width:1px;stroke:black;"/>
        <path d="M212.456,142.669C211.115,146.952 206.561,151.471 209.172,155.157C212.674,160.097 225.136,163.716 238.061,164.95" style="fill:none;stroke-width:1px;stroke:black;"/>
        <path d="M302.692,236.495C279.038,276.915 255.002,314.325 230.716,349.764" style="fill:none;stroke-width:1px;stroke:black;"/>
        <path d="M11.611,400.658C8.63,388.906 9.49,375.827 13.373,361.705C13.934,359.679 14.095,357.564 13.849,355.477C12.924,347.566 10.521,327.185 9.416,317.819C9.278,316.651 9.738,315.493 10.639,314.738C11.54,313.983 12.761,313.733 13.886,314.073C16.347,314.894 18.74,315.938 20.206,316.828" style="fill:none;stroke-width:1px;stroke:black;"/>
        <path d="M31.292,370.156C31.246,374.739 31.295,379.208 31.626,383.381C48.545,371.757 61.158,361.373 72.922,344.98L103.765,313.157C118.569,297.883 134.433,317.477 105.115,340.876C97.72,352.154 88.994,364.469 81.355,374.567C78.177,378.768 81.896,382.754 86.106,378.01C100.665,361.603 117.449,345.958 137.491,332.64C149.383,324.739 153.304,337.165 144.322,345.758C128.244,363.472 109.702,384.901 97.969,401.668C117.916,390.471 133.413,375.156 144.662,355.911C150.818,345.38 163.024,355.651 155.589,367.019C150.716,381.327 143.088,392.041 133.71,400.47" style="fill:none;stroke-width:1px;stroke:black;"/>
        <path d="M143.619,400.941C146.665,394.469 150.314,388.968 156.833,388.09C158.546,387.8 160.286,388.435 161.409,389.761C162.532,391.087 162.873,392.907 162.304,394.549C161.316,397.6 160.241,400.707 160.241,400.707" style="fill:none;stroke-width:1px;stroke:black;"/>
        <path d="M149.116,340.489C153.675,344.12 157.124,350.132 159.36,358.747C159.613,359.72 160.183,360.582 160.979,361.197C176.855,373.506 190.36,386.865 201.867,401.111" style="fill:none;stroke-width:1px;stroke:black;"/>
        <path d="M188.403,106.174C184.945,103.665 206.161,63.466 213.906,58.717C221.562,28.942 283.232,10.662 307.015,31.087C323.207,16.638 344.896,22.441 336.551,36.961C352.379,32.562 364.978,43.622 401.709,90.056" style="fill:none;stroke-width:1px;stroke:black;"/>
        <path d="M340.688,308.726C363.504,321.374 378.629,339.364 379.807,367.042C388.005,379.981 392.346,390.81 393.178,399.72" style="fill:none;stroke-width:1px;stroke:black;"/>
        <path d="M290.055,350.327C280.508,368.741 268.25,386.534 252.479,403.523" style="fill:none;stroke-width:1px;stroke:black;"/>
        <path d="M205.995,400.401C194.491,380.602 188.147,357.839 187.811,331.626" style="fill:none;stroke-width:1px;stroke:black;"/>
        <path d="M294.409,227.876C302.668,231.466 311.769,232.977 324.322,225.958" style="fill:none;stroke-width:1px;stroke:black;"/>
        <path d="M104.941,190.951C108.078,189.164 111.762,192.05 113.122,196.949C110.198,193.802 106.12,195.216 104.941,190.951Z" style="fill:black;"/>
        <path d="M342.009,305.089C347.594,302.829 351.684,299.457 356.778,296.371C361.321,293.618 366.143,291.209 370.309,287.872C376.847,282.634 382.7,273.313 385.708,265.588C389.731,255.26 389.913,244.085 393.278,233.556C395.596,226.301 398.334,218.347 401.819,211.591" style="fill:none;stroke-width:1px;stroke:black;"/>
        <path d="M401.912,149.692C400.132,160.343 397.926,170.373 398.111,181.284C398.299,192.448 403.576,202.598 401.34,213.719" style="fill:none;stroke-width:1px;stroke:black;"/>
        <path d="M308.86,245.535C305.391,250.283 302.673,255.273 299.993,260.498C295.88,268.517 292.05,276.36 291.021,285.456C289.723,296.927 291.927,308.422 291.314,319.842C291.096,323.903 290.499,328.144 289.911,332.172C289.014,338.319 287.678,345.428 293.327,349.796C296.408,352.177 303.152,349.333 306.334,348.228C311.031,346.597 317.035,344.626 322.105,345.425C326.568,346.13 330.309,351.35 332.028,355.046C333.168,357.498 334.806,360.432 335.192,363.127" style="fill:none;stroke-width:1px;stroke:black;"/>
        <path d="M197.249,278.361C195.635,287.841 194.197,297.135 194.352,306.782C194.457,313.323 195.646,319.776 196.206,326.277C196.873,334.011 197.07,341.669 197.07,349.426C197.07,354.838 195.858,359.936 193.701,364.928C193.022,366.499 191.071,369.107 189.041,369.107" style="fill:none;stroke-width:1px;stroke:black;"/>
        <path d="M201.57,281.369C203.594,297.626 209.796,314.905 205.291,331.407C204.406,334.652 201.244,340.044 198.233,341.623C196.863,342.341 195.285,342.384 193.82,342.786C192.553,343.133 188.781,344.304 188.104,342.424" style="fill:none;stroke-width:1px;stroke:black;"/>
        <path d="M133.271,261.173C148.204,245.381 146.822,232.267 157.698,231.286" style="fill:none;stroke-width:1px;stroke:black;"/>
        <g transform="matrix(1,0,0,1,3.80078,-3.09375)">
            <path d="M252.519,56.888C264.555,58.119 272.667,69.449 275.504,77.961C284.538,105.075 272.594,133.478 277.363,160.951C278.785,169.145 282.123,176.711 288.689,182.023C289.771,182.899 295.212,187.639 296.757,185.726" style="fill:none;stroke-width:1px;stroke:black;"/>
        </g>
        <path d="M290.642,101.13C291.074,112.867 289.627,124.644 290.377,136.39C291.516,154.252 296.792,171.466 304.613,187.47C307.394,193.162 309.885,199.365 314.078,204.185" style="fill:none;stroke-width:1px;stroke:black;"/>
        <path d="M259.074,47.754C268.221,46.982 276.945,44.526 286.045,43.638C310.283,41.274 334.697,42.655 358.222,49.271" style="fill:none;stroke-width:1px;stroke:black;"/>
        <path d="M123.613,229.478C129.519,228.105 133.957,231.339 139.122,235.409C143.324,227.163 150.966,220.455 160.071,219.216" style="fill:none;stroke-width:1px;stroke:black;"/>
        <path d="M303.184,124.457C305.048,143.598 308.444,160.712 317.666,177.694C324.348,190 335.378,201.265 339.978,214.509C347.354,235.746 343.804,256.022 341.66,277.603C340.288,291.424 335.288,301.574 329.486,313.814C326.463,320.191 319.885,327.965 312.843,327.965" style="fill:none;stroke-width:1px;stroke:black;"/>
        <path d="M214.479,66.686C214.733,61.691 214.335,59.319 216.301,55.349C223.067,41.691 242.599,37.913 255.714,41.245C260.082,42.355 265.095,42.572 268.26,46.269" style="fill:none;stroke-width:0.5px;stroke:black;"/>
        <path d="M237.807,38.833C251.181,35.386 265.062,34.499 277.753,40.89C279.726,41.883 287.669,44.595 287.669,47.134" style="fill:none;stroke-width:0.5px;stroke:black;"/>
        <path d="M275.319,32.378C281.131,34.048 284.856,35.248 289.317,39.075C290.653,40.222 291.848,41.486 293.038,42.778C293.394,43.165 294.274,44.282 294.274,43.757" style="fill:none;stroke-width:0.5px;stroke:black;"/>
        <path d="M288.413,31.37C295.059,34.496 302.769,38.308 307.061,44.692" style="fill:none;stroke-width:0.5px;stroke:black;"/>
        <path d="M318.067,42.436C319.321,40.729 320.512,38.974 321.829,37.315C324.141,34.403 330.578,32.884 334.137,32.831C335.158,32.816 338.02,32.591 338.485,33.825" style="fill:none;stroke-width:0.5px;stroke:black;"/>
        <path d="M312.028,205.081C312.096,207.319 312.398,209.783 310.517,211.442C309.249,212.561 306.418,212.649 306.274,214.774C306.161,216.453 308.131,217.043 309.507,216.715C310.943,216.373 312.002,215.896 313.559,215.915C314.401,215.925 315.581,216.46 316.36,215.915C317.645,215.016 317.642,213.171 317.642,211.783C317.642,210.52 317.31,209.225 316.796,208.071C316.194,206.72 315.35,205.243 314.303,204.184" style="fill:none;stroke-width:0.5px;stroke:black;"/>
        <path d="M296.847,182.94C297.134,188.227 295.525,194.1 297.996,199.052C299.341,201.75 303.082,205.64 305.126,201.578" style="fill:none;stroke-width:0.5px;stroke:black;"/>
        <path d="M300.649,184.131C300.649,190.598 301.616,199.649 308.21,202.867" style="fill:none;stroke-width:0.5px;stroke:black;"/>
        <path d="M220.559,313.693C223.018,315.526 225.399,317.622 226.642,320.521C227.622,322.806 228.052,327.941 226.683,333.172C225.156,339.009 221.696,344.894 220.512,345.567" style="fill:none;stroke-width:0.5px;stroke:black;"/>
        <path d="M222.405,319.687C224.896,324.958 225.386,331.994 221.92,336.986" style="fill:none;stroke-width:0.5px;stroke:black;"/>
        <path d="M139.704,397.454C141.311,398.432 143.011,399.955 145.022,400.093" style="fill:none;stroke-width:0.5px;stroke:black;"/>
        <path d="M140.971,394.701C142.982,395.572 143.986,396.374 145.819,396.536" style="fill:none;stroke-width:0.5px;stroke:black;"/>
        <path d="M143.665,391.958C146.247,393.362 146.09,393.533 147.972,394.2" style="fill:none;stroke-width:0.5px;stroke:black;"/>
        <path d="M147.032,387.701C149.398,388.818 150.706,389.708 152.953,390.152" style="fill:none;stroke-width:0.5px;stroke:black;"/>
        <path d="M150.25,384.04C152.539,385.121 153.469,385.73 155.398,386.291" style="fill:none;stroke-width:0.5px;stroke:black;"/>
        <path d="M153.528,381.733C154.908,382.291 156.287,382.849 157.666,383.407" style="fill:none;stroke-width:0.5px;stroke:black;"/>
        <path d="M116.833,243.492C122.126,241.998 127.735,240.226 133.316,240.674C135.428,240.844 137.687,242.463 139.759,242.282C141.718,242.111 141.916,240.371 143.578,239.605C145.978,238.499 148.893,239.219 151.437,238.734" style="fill:none;stroke-width:0.5px;stroke:black;"/>
        <path d="M125.208,252.942C127.347,252.67 131.751,253.341 134.061,252.705C135.344,252.352 136.273,250.247 137.454,249.537C140.73,247.57 144.731,248.576 148.07,249.726" style="fill:none;stroke-width:0.5px;stroke:black;"/>
        <path d="M186.698,111.149C188.372,114.481 189.855,117.658 190.837,121.252C190.907,121.508 191.584,123.434 191.058,123.674" style="fill:none;stroke-width:0.5px;stroke:black;"/>
        <path d="M187.673,111.017C188.809,113.556 190.659,116.681 191.324,119.52" style="fill:none;stroke-width:0.5px;stroke:black;"/>
        <path d="M208.631,127.155C212.633,128.891 216.859,130.845 221.259,131.345C228.007,132.111 233.798,131.411 240.027,134.864" style="fill:none;stroke-width:0.5px;stroke:black;"/>
        <path d="M210.173,126.274C215.399,128.37 220.775,130.906 226.461,131.373" style="fill:none;stroke-width:0.5px;stroke:black;"/>
        <path d="M211.812,124.998C217.96,128.513 223.379,130.172 230.333,131.08" style="fill:none;stroke-width:0.5px;stroke:black;"/>
        <path d="M242.828,137.815C246.488,142.105 249.208,146.307 251.22,151.588" style="fill:none;stroke-width:0.5px;stroke:black;"/>
        <path d="M174.203,141.05C175.735,140.988 180.886,141.384 182.728,139.991" style="fill:none;stroke-width:0.5px;stroke:black;"/>
        <path d="M175.444,140.984C177.79,140.71 180.303,140.662 182.56,139.811" style="fill:none;stroke-width:0.5px;stroke:black;"/>
        <path d="M175.905,140.416C179.637,140.543 179.643,140.835 182.073,140.181" style="fill:none;stroke-width:0.5px;stroke:black;"/>
        <path d="M178.005,139.963C179.476,139.919 180.947,139.875 182.418,139.83" style="fill:none;stroke-width:0.5px;stroke:black;"/>
        <path d="M178.936,142.421C181.518,142.258 182.947,142.457 185.006,141.438" style="fill:none;stroke-width:0.5px;stroke:black;"/>
        <path d="M180.079,142.186C181.467,141.76 182.855,141.334 184.243,140.908" style="fill:none;stroke-width:0.5px;stroke:black;"/>
        <path d="M179.635,140.218C180.654,140.566 184.611,142.558 186.371,141.618" style="fill:none;stroke-width:0.5px;stroke:black;"/>
        <path d="M179.432,139.782C181.707,140.317 183.086,140.871 185.13,140.871" style="fill:none;stroke-width:0.5px;stroke:black;"/>
        <path d="M179.875,139.489C182.119,140.145 184.144,140.835 186.406,141.183" style="fill:none;stroke-width:0.5px;stroke:black;"/>
        <path d="M202.252,155.93C203.921,156.165 206.904,156.043 208.057,154.412" style="fill:none;stroke-width:0.5px;stroke:black;"/>
        <path d="M203.728,157.533C205.781,157.14 207.158,156.519 208.819,155.254" style="fill:none;stroke-width:0.5px;stroke:black;"/>
        <path d="M205.115,158.209C207.372,157.975 208.986,157.636 210.955,156.62" style="fill:none;stroke-width:0.5px;stroke:black;"/>
        <path d="M206.608,160.168C208.577,159.736 210.23,159.059 212.062,158.271" style="fill:none;stroke-width:0.5px;stroke:black;"/>
        <path d="M209.909,162.258C211.126,161.561 212.253,160.939 213.37,160.12" style="fill:none;stroke-width:0.5px;stroke:black;"/>
        <path d="M201.53,155.39C203.685,156.017 204.912,155.844 207.073,155.476" style="fill:none;stroke-width:0.5px;stroke:black;"/>
        <path d="M202.487,155.126C204.642,155.353 206.39,154.832 208.491,154.832" style="fill:none;stroke-width:0.5px;stroke:black;"/>
        <path d="M203.515,156.63C204.906,156.662 208.44,157.192 209.657,155.859" style="fill:none;stroke-width:0.5px;stroke:black;"/>
        <path d="M205.549,157.509C207.613,157.729 208.652,157.507 210.556,157.032" style="fill:none;stroke-width:0.5px;stroke:black;"/>
        <path d="M205.846,156.394C207.323,156.5 209.182,156.885 210.551,156.024" style="fill:none;stroke-width:0.5px;stroke:black;"/>
        <path d="M208.526,159.117C209.566,158.764 211.394,158.349 212.403,157.561" style="fill:none;stroke-width:0.5px;stroke:black;"/>
        <path d="M210.436,161.558C211.909,161.294 214.087,161.123 215.19,159.845" style="fill:none;stroke-width:0.5px;stroke:black;"/>
        <path d="M210.436,159.888C211.877,159.511 213.053,159.037 214.419,158.592" style="fill:none;stroke-width:0.5px;stroke:black;"/>
        <path d="M210.914,160.82C211.924,160.606 213.988,160.462 214.858,159.505" style="fill:none;stroke-width:0.5px;stroke:black;"/>
        <path d="M213.71,163.341C215.565,162.841 217.25,162.261 219.014,161.539" style="fill:none;stroke-width:0.5px;stroke:black;"/>
        <path d="M217.786,165.124C219.56,164.451 221.755,163.886 223.307,162.726" style="fill:none;stroke-width:0.5px;stroke:black;"/>
        <path d="M217.552,163.653C218.986,163.435 221.353,163.298 222.124,161.718" style="fill:none;stroke-width:0.5px;stroke:black;"/>
        <path d="M213.985,162.896C215.438,162.135 216.46,161.22 217.808,160.413" style="fill:none;stroke-width:0.5px;stroke:black;"/>
        <path d="M214.269,162.305C214.881,161.909 217.098,160.905 217.645,160.073" style="fill:none;stroke-width:0.5px;stroke:black;"/>
        <path d="M217.321,163.7C218.224,162.95 219.049,162.269 219.886,161.492" style="fill:none;stroke-width:0.5px;stroke:black;"/>
        <path d="M217.1,163.128C218.962,162.856 219.668,162.635 221.176,161.941" style="fill:none;stroke-width:0.5px;stroke:black;"/>
        <path d="M219.869,164.585C221.345,164.016 222.833,163.229 224.42,163.015" style="fill:none;stroke-width:0.5px;stroke:black;"/>
        <path d="M222.625,165.223C224.751,164.542 227.055,163.358 229.302,163.071" style="fill:none;stroke-width:0.5px;stroke:black;"/>
        <path d="M221.978,166.737C226.068,165.591 230.106,164.283 234.176,163.09" style="fill:none;stroke-width:0.5px;stroke:black;"/>
        <path d="M224.681,166.78C227.639,166.454 230.062,165.475 232.856,164.599" style="fill:none;stroke-width:0.5px;stroke:black;"/>
        <path d="M227.206,166.836C230.008,166.252 232.423,165.048 235.129,164.272" style="fill:none;stroke-width:0.5px;stroke:black;"/>
        <path d="M228.425,168.066C231.838,167.313 234.227,166.258 237.1,164.41" style="fill:none;stroke-width:0.5px;stroke:black;"/>
        <path d="M209.545,157.4C208.743,157.15 207.946,156.878 207.137,156.651C206.721,156.534 207.808,157.207 208.195,157.4C208.611,157.608 209.033,157.807 209.46,157.991C210.621,158.49 212.385,159.156 213.533,159.569C218.347,161.302 223.335,162.631 228.367,163.559C228.426,163.57 232.289,164.221 232.324,163.938C232.356,163.669 231.57,163.464 231.42,163.399" style="fill:none;stroke-width:0.5px;stroke:black;"/>
        <path d="M210.688,157.094C215.915,160.317 220.917,162.578 227.017,163.581C228.599,163.842 230.209,164.081 231.813,164.16C232.091,164.174 233.17,164.342 233.413,164.086" style="fill:none;stroke-width:0.5px;stroke:black;"/>
        <path d="M210.513,158.354C219.308,162.542 227.683,164.517 237.369,164.517" style="fill:none;stroke-width:0.5px;stroke:black;"/>
        <path d="M217.617,162.128C223.406,164.188 228.881,165.602 235.04,165.602" style="fill:none;stroke-width:0.5px;stroke:black;"/>
        <path d="M228.325,164.149C229.263,164.271 230.2,164.394 231.138,164.517" style="fill:none;stroke-width:0.5px;stroke:black;"/>
        <path d="M202.224,154.563C204.755,154.871 207.296,155.136 209.849,155.136" style="fill:none;stroke-width:0.5px;stroke:black;"/>
        <path d="M207.849,156.362C209.013,156.43 210.472,156.402 211.699,156.572" style="fill:none;stroke-width:0.5px;stroke:black;"/>
        <path d="M208.477,156.697C209.864,157.116 212.032,158.064 213.635,158.064" style="fill:none;stroke-width:0.5px;stroke:black;"/>
        <path d="M209.333,157.389C210.854,157.915 212.138,158.498 213.693,158.638" style="fill:none;stroke-width:0.5px;stroke:black;"/>
        <path d="M209.849,158.167C211.418,158.598 212.966,158.974 214.543,159.353" style="fill:none;stroke-width:0.5px;stroke:black;"/>
        <path d="M338.746,98.433C346.176,123.347 354.189,148.252 359.576,173.704" style="fill:none;stroke-width:0.5px;stroke:black;"/>
        <path d="M352.996,108.62C358.5,132.939 362.743,157.386 364.347,182.304" style="fill:none;stroke-width:0.5px;stroke:black;"/>
        <path d="M261.595,58.448C283.202,80.435 276.952,115.764 281.015,143.88" style="fill:none;stroke-width:0.5px;stroke:black;"/>
        <path d="M109.021,312.495C108.684,314.019 107.487,317.362 108.297,319.062C109.875,322.371 115.014,322.864 117.815,320.924C118.635,320.356 119.152,318.918 119.501,318.029" style="fill:none;stroke-width:0.5px;stroke:black;"/>
        <path d="M150.381,355.709C149.907,359.627 150.054,364.478 155.103,364.183" style="fill:none;stroke-width:0.5px;stroke:black;"/>
        <path d="M75.992,358.956C77.967,359.746 82.291,362.185 84.408,360.113" style="fill:none;stroke-width:0.5px;stroke:black;"/>
        <path d="M77.156,356.237C79.946,358.108 82.273,359.215 85.621,359.33" style="fill:none;stroke-width:0.5px;stroke:black;"/>
        <path d="M81.936,355.947C83.538,356.743 83.429,356.821 84.871,357.304" style="fill:none;stroke-width:0.5px;stroke:black;"/>
        <path d="M369.018,338.692C365.411,348.331 362.186,358.107 358.489,367.713C354.182,378.903 349.273,389.835 345.587,401.256" style="fill:none;stroke-width:0.5px;stroke:black;"/>
        <path d="M380.43,363.949C377.055,377.725 374.13,391.87 369.256,405.211" style="fill:none;stroke-width:0.5px;stroke:black;"/>
        <path d="M299.205,357.639C297.419,372.903 296.281,387.982 296.281,403.356" style="fill:none;stroke-width:0.5px;stroke:black;"/>
        <path d="M318.701,350.082C316.631,361.536 314.176,372.92 311.718,384.296C309.656,393.839 307.878,403.999 304.257,413.118" style="fill:none;stroke-width:0.5px;stroke:black;"/>
        <path d="M322.236,351.623C318.632,368.18 314.699,384.611 310.584,401.048" style="fill:none;stroke-width:0.5px;stroke:black;"/>
        <path d="M346.243,342.155C339.876,360.083 335.551,378.288 332.162,397.009C331.223,402.196 328.439,411.087 330.531,416.438" style="fill:none;stroke-width:0.5px;stroke:black;"/>
        <path d="M348.946,350.668C343.443,368.252 338.638,385.813 335.316,403.942" style="fill:none;stroke-width:0.5px;stroke:black;"/>
        <path d="M50.311,394.626C53.837,398.419 57.454,401.958 61.493,405.201" style="fill:none;stroke-width:0.5px;stroke:black;"/>
        <path d="M51.799,390.898C55.374,394.128 58.888,397.409 62.38,400.727" style="fill:none;stroke-width:0.5px;stroke:black;"/>
        <path d="M58.286,393.349C60.956,395.642 60.943,395.461 62.999,397.52" style="fill:none;stroke-width:0.5px;stroke:black;"/>
        <path d="M59.278,389.073C60.501,390.236 61.724,391.4 62.947,392.563" style="fill:none;stroke-width:0.5px;stroke:black;"/>
        <path d="M141.172,333.331C141.538,336.47 142.646,340.893 146.475,341.525" style="fill:none;stroke-width:0.5px;stroke:black;"/>
    </g>
    <g id="Small">
        <path d="M68.079,235.531C79.024,235.064 90.084,236.323 100.821,238.448C103.17,238.913 105.451,239.573 107.701,240.384C107.799,240.419 109.695,240.923 109.695,241.036" style="fill:none;stroke-width:0.5px;stroke:black;"/>
        <path d="M84.301,221.11C92.125,225.708 98.895,232.279 107.281,235.866C109.527,236.827 112.356,238.55 114.869,238.55" style="fill:none;stroke-width:0.5px;stroke:black;"/>
        <path d="M120.75,295.862C125.352,304.449 126.414,314.376 131.258,322.921" style="fill:none;stroke-width:0.5px;stroke:black;"/>
        <path d="M126.665,305.206C128.168,309.838 129.911,314.28 131.988,318.679" style="fill:none;stroke-width:0.5px;stroke:black;"/>
        <path d="M131.822,288.087C134.691,293.785 137.482,299.377 141.473,304.39C142.698,305.929 144.008,307.405 145.268,308.916C145.389,309.061 146.371,309.966 146.371,310.187" style="fill:none;stroke-width:0.5px;stroke:black;"/>
        <path d="M138.436,296.402C141.003,300.751 144.408,304.359 147.082,308.555" style="fill:none;stroke-width:0.5px;stroke:black;"/>
        <path d="M116.948,255.445C105.982,255.997 97.715,260.555 90.311,268.612C88.808,270.248 88.107,272.873 86.642,274.338" style="fill:none;stroke-width:0.5px;stroke:black;"/>
        <path d="M110.634,259.014C102.001,260.156 95.79,265.209 90.237,271.649" style="fill:none;stroke-width:0.5px;stroke:black;"/>
        <path d="M117.188,265.994C111.497,269.146 105.096,272.459 100.924,277.594C98.888,280.1 97.791,283.264 96.478,286.179" style="fill:none;stroke-width:0.5px;stroke:black;"/>
        <path d="M115.686,268.819C110.699,272.202 104.153,275.6 100.891,280.858" style="fill:none;stroke-width:0.5px;stroke:black;"/>
        <path d="M115.26,276.622C111.64,279.757 107.912,282.873 105.623,287.157" style="fill:none;stroke-width:0.5px;stroke:black;"/>
        <path d="M56.78,139.883C49.586,151.665 52.85,167.306 60.111,178.3C61.443,180.318 63.085,182.751 64.915,184.344C65.736,185.058 68.18,186.481 68.651,187.48" style="fill:none;stroke-width:0.5px;stroke:black;"/>
        <path d="M46.718,185.508C51.733,187.968 56.883,191.017 62.542,191.637C64.044,191.801 66.133,192.052 67.521,191.261" style="fill:none;stroke-width:0.5px;stroke:black;"/>
        <path d="M47.682,188.551C51.885,190.36 56.086,192.178 60.549,193.247" style="fill:none;stroke-width:0.5px;stroke:black;"/>
        <path d="M49.369,192.943C51.979,194.034 54.96,195.756 57.884,195.844" style="fill:none;stroke-width:0.5px;stroke:black;"/>
        <path d="M48.532,194.461C50.726,195.506 52.54,196.395 54.926,196.667" style="fill:none;stroke-width:0.5px;stroke:black;"/>
        <path d="M102.686,195.235C100.88,196.788 98.697,198.336 97.488,200.47C95.335,204.272 94.726,208.317 91.647,211.679C90.204,213.254 88.326,214.569 86.282,215.24C85.685,215.437 82.563,215.24 83.112,215.084" style="fill:none;stroke-width:0.5px;stroke:black;"/>
        <path d="M101.642,198.199C99.991,200.369 98.139,202.577 96.771,204.961C94.462,208.984 94.046,212.85 89.632,215.333C88.556,215.939 87.538,215.989 86.429,216.333" style="fill:none;stroke-width:0.5px;stroke:black;"/>
        <path d="M99.575,203.649C98.999,204.604 98.417,205.556 97.847,206.515C96.473,208.825 93.761,217.925 89.838,216.56" style="fill:none;stroke-width:0.5px;stroke:black;"/>
        <path d="M105.025,199.477C108.264,201.559 110.618,204.154 113.572,206.571C114.431,207.274 115.314,207.963 116.363,208.359C116.575,208.438 119.169,208.891 118.124,208.352" style="fill:none;stroke-width:0.5px;stroke:black;"/>
        <path d="M105.683,196.447C108.555,199.251 111.048,202.417 114.163,204.968C114.314,205.091 117.885,207.47 117.885,207.032" style="fill:none;stroke-width:0.5px;stroke:black;"/>
        <path d="M109.498,197.717C111.509,200.308 113.626,202.692 116.037,204.918C116.728,205.556 118.855,206.74 119.294,207.45" style="fill:none;stroke-width:0.5px;stroke:black;"/>
        <path d="M118.623,209.806C114.572,211.65 110.167,213.257 106.467,215.787C106.096,216.041 103.922,217.387 103.922,218.028" style="fill:none;stroke-width:0.5px;stroke:black;"/>
        <path d="M119.009,210.572C115.439,212.252 111.753,213.679 108.315,215.631C107.919,215.855 104.5,217.494 104.5,218.206" style="fill:none;stroke-width:0.5px;stroke:black;"/>
        <path d="M117.207,212.389C113.72,213.86 109.634,215.288 106.886,218.036" style="fill:none;stroke-width:0.5px;stroke:black;"/>
        <path d="M114.369,197.838C116.996,200.434 119.681,203.822 123.255,205.153" style="fill:none;stroke-width:0.5px;stroke:black;"/>
        <path d="M115.991,199.285C119.145,201.34 123.363,204.62 127.409,204.62" style="fill:none;stroke-width:0.5px;stroke:black;"/>
        <path d="M127.509,207.274C129.605,208.347 129.465,208.706 130.985,208.706" style="fill:none;stroke-width:0.5px;stroke:black;"/>
        <path d="M96.611,222.924C99.188,222.323 101.171,221.866 103.716,221.866" style="fill:none;stroke-width:0.5px;stroke:black;"/>
        <path d="M97.096,221.548C99.466,221.32 101.854,220.951 104.24,220.951" style="fill:none;stroke-width:0.5px;stroke:black;"/>
        <path d="M101.35,221.555C105.857,222.558 110.39,223.421 114.895,224.428C116.427,224.771 117.941,225.069 119.514,225.13C119.599,225.133 122.429,225.317 121.62,224.854" style="fill:none;stroke-width:0.5px;stroke:black;"/>
        <path d="M22.259,317.515C21.078,319.778 20.937,320.126 19.827,321.58" style="fill:none;stroke-width:0.5px;stroke:black;"/>
        <path d="M23.177,321.331C22.382,322.34 21.832,323.597 20.804,324.368" style="fill:none;stroke-width:0.5px;stroke:black;"/>
        <path d="M23.867,323.403C22.81,324.442 21.441,326.437 19.66,326.646" style="fill:none;stroke-width:0.5px;stroke:black;"/>
        <path d="M30.301,369.525C29.112,369.484 27.922,369.443 26.733,369.403C23.935,369.309 26.285,368.067 27.842,367.219C28.242,367.001 29.326,366.606 28.926,366.389C28.317,366.058 27.359,366.048 26.693,365.985C26.687,365.984 24.902,365.936 25.17,365.679C26.14,364.748 27.686,364.287 28.773,363.466C29.096,363.221 29.935,362.76 29.583,362.558C29.021,362.234 25.088,362.314 25.037,361.954C24.946,361.313 28.329,360.138 28.825,359.918C28.854,359.905 30.498,359.219 30.334,359.096C29.31,358.327 25.855,359.077 25.277,358.244C25.049,357.916 28.054,357.237 28.314,357.18C28.714,357.091 29.619,357.285 29.51,356.889C29.246,355.926 25.002,355.935 24.187,355.385C23.937,355.216 24.752,355.157 25.051,355.115C25.855,355.004 26.668,354.992 27.477,354.959C28.814,354.906 34.626,353.976 31.677,351.64" style="fill:none;stroke-width:0.5px;stroke:black;"/>
        <path d="M26.506,326.681C25.143,329.802 24.368,331.672 21.721,333.619" style="fill:none;stroke-width:0.5px;stroke:black;"/>
        <path d="M27.948,330.114C25.995,332.695 24.044,335.184 21.242,336.89" style="fill:none;stroke-width:0.5px;stroke:black;"/>
        <path d="M27.69,332.64C26.16,334.429 23.773,337.959 21.368,339.061" style="fill:none;stroke-width:0.5px;stroke:black;"/>
        <path d="M27.623,334.975C26.305,336.673 23.942,340.402 21.296,340.899" style="fill:none;stroke-width:0.5px;stroke:black;"/>
        <path d="M28.46,337.011C26.892,339.645 25.853,341.342 23.043,342.622C22.883,342.695 21.316,343.457 21.223,342.955" style="fill:none;stroke-width:0.5px;stroke:black;"/>
        <path d="M28.647,340.579C27.356,342.54 25.167,345.254 22.439,345.254" style="fill:none;stroke-width:0.5px;stroke:black;"/>
        <path d="M29.085,344.53C27.418,346.108 26.373,347.075 24.412,348.057C23.651,348.438 22.722,348.689 23.469,348.177" style="fill:none;stroke-width:0.5px;stroke:black;"/>
        <path d="M29.543,347.588C27.562,349.673 26.087,350.881 23.422,351.873" style="fill:none;stroke-width:0.5px;stroke:black;"/>
        <path d="M29.517,349.624C27.925,351.657 25.854,354.598 22.864,354.598" style="fill:none;stroke-width:0.5px;stroke:black;"/>
        <path d="M81.749,374.987C82.678,375.702 83.597,376.427 84.534,377.13C84.955,377.445 85.748,378.098 86.248,377.606" style="fill:none;stroke-width:0.5px;stroke:black;"/>
        <path d="M82.241,373.469C83.183,374.122 84.118,374.784 85.066,375.427C85.228,375.537 86.473,376.354 86.608,375.896" style="fill:none;stroke-width:0.5px;stroke:black;"/>
        <path d="M82.221,372.143C83.92,373.074 85.49,374.161 87.399,374.54" style="fill:none;stroke-width:0.5px;stroke:black;"/>
        <path d="M84.168,370.93C85.171,371.647 87.839,374.122 89.685,374.122" style="fill:none;stroke-width:0.5px;stroke:black;"/>
        <path d="M84.76,369.653C85.741,370.23 88.206,372.128 89.811,372.299" style="fill:none;stroke-width:0.5px;stroke:black;"/>
        <path d="M85.857,367.879C87.523,368.862 89.505,370.381 91.4,371.121" style="fill:none;stroke-width:0.5px;stroke:black;"/>
        <path d="M88.349,365.389C89.905,366.234 91.615,367.32 93.3,368.042" style="fill:none;stroke-width:0.5px;stroke:black;"/>
        <path d="M89.372,363.722C90.605,364.547 92.935,366.687 94.889,366.687" style="fill:none;stroke-width:0.5px;stroke:black;"/>
        <path d="M89.033,361.068C90.656,362.065 93.605,364.482 95.899,364.537" style="fill:none;stroke-width:0.5px;stroke:black;"/>
        <path d="M89.811,359.274C92.022,360.48 96.002,363.771 98.717,363.771" style="fill:none;stroke-width:0.5px;stroke:black;"/>
        <path d="M91.924,358.088C93.827,359.189 97.267,361.917 99.674,362.047" style="fill:none;stroke-width:0.5px;stroke:black;"/>
        <path d="M92.868,356.088C94.16,356.858 98.763,360.728 100.757,360.728" style="fill:none;stroke-width:0.5px;stroke:black;"/>
        <path d="M94.357,355.002C96.615,356.413 99.33,358.95 101.96,359.777" style="fill:none;stroke-width:0.5px;stroke:black;"/>
        <path d="M96.424,353.959C98.217,355.262 100.022,356.669 101.88,357.903C102.049,358.016 104.624,359.662 104.685,358.983" style="fill:none;stroke-width:0.5px;stroke:black;"/>
        <path d="M97.779,353.108C100.338,354.846 103.448,357.685 106.626,358.294" style="fill:none;stroke-width:0.5px;stroke:black;"/>
        <path d="M99.075,352.377C101.192,353.386 105.292,357.004 107.822,357.166" style="fill:none;stroke-width:0.5px;stroke:black;"/>
        <path d="M101.276,345.815C104.487,346.674 107.582,347.937 110.806,348.731C111.101,348.803 113.616,349.503 113.638,348.802" style="fill:none;stroke-width:0.5px;stroke:black;"/>
        <path d="M101.747,343.055C105.41,344.078 108.983,345.357 112.641,346.397" style="fill:none;stroke-width:0.5px;stroke:black;"/>
        <path d="M104.326,341.842C108.016,343.373 111.417,345.332 115.053,346.936" style="fill:none;stroke-width:0.5px;stroke:black;"/>
        <path d="M109.557,338.274C112.177,340.48 114.685,342.917 117.845,344.332" style="fill:none;stroke-width:0.5px;stroke:black;"/>
        <path d="M110.149,336.394C112.989,338.697 116.142,342.12 119.553,343.7" style="fill:none;stroke-width:0.5px;stroke:black;"/>
        <path d="M116.183,331.079C118.771,334.26 121.099,337.928 124.431,340.409" style="fill:none;stroke-width:0.5px;stroke:black;"/>
        <path d="M118.23,329.718C120.22,332.548 122.732,337.217 125.973,339.019" style="fill:none;stroke-width:0.5px;stroke:black;"/>
        <path d="M119.733,328.93C121.629,331.441 123.566,333.872 125.587,336.279C125.904,336.657 126.664,337.847 127.249,338.004" style="fill:none;stroke-width:0.5px;stroke:black;"/>
        <path d="M121.846,329.136C123.78,331.465 126.068,335.837 128.725,337.486" style="fill:none;stroke-width:0.5px;stroke:black;"/>
        <path d="M123.633,328.036C125.366,330.33 126.986,332.643 128.664,334.967C128.905,335.301 129.948,337.048 130.585,337.103" style="fill:none;stroke-width:0.5px;stroke:black;"/>
        <path d="M126.79,329.278C128.041,331.223 129.565,334.307 131.629,335.777" style="fill:none;stroke-width:0.5px;stroke:black;"/>
        <path d="M127.07,326.681C128.394,328.617 129.653,330.58 130.957,332.527C130.961,332.532 132.538,335.19 132.492,334.152" style="fill:none;stroke-width:0.5px;stroke:black;"/>
        <path d="M129.443,327.823C130.252,329.113 131.05,330.41 131.875,331.69C131.954,331.812 133.441,333.852 133.456,333.697" style="fill:none;stroke-width:0.5px;stroke:black;"/>
        <path d="M131.011,327.383C131.474,328.17 132.659,330.259 133.397,331.363C133.458,331.455 134.486,333.135 134.832,332.839" style="fill:none;stroke-width:0.5px;stroke:black;"/>
        <path d="M131.569,325.347C132.78,327.372 133.947,329.45 135.218,331.442C135.509,331.898 137.661,334.976 136.694,332.548" style="fill:none;stroke-width:0.5px;stroke:black;"/>
        <path d="M134.254,327.717C135.313,329.254 136.219,330.722 137.431,332.087" style="fill:none;stroke-width:0.5px;stroke:black;"/>
        <path d="M102.891,394.065C103.809,395.025 104.776,397.571 105.828,396.76" style="fill:none;stroke-width:0.5px;stroke:black;"/>
        <path d="M104.154,393.852C105.276,395.045 108.238,398.499 108.029,396.874" style="fill:none;stroke-width:0.5px;stroke:black;"/>
        <path d="M105.336,392.028C105.341,392.034 108.16,396.072 109.125,396.072" style="fill:none;stroke-width:0.5px;stroke:black;"/>
        <path d="M106.054,391.014C106.805,391.834 107.557,392.654 108.308,393.476C108.373,393.547 109.877,395.287 109.903,394.76" style="fill:none;stroke-width:0.5px;stroke:black;"/>
        <path d="M107.157,390.227C108.246,391.341 109.008,393.426 110.567,393.426" style="fill:none;stroke-width:0.5px;stroke:black;"/>
        <path d="M108.174,388.623C109.439,389.981 110.256,392.452 112.109,392.561" style="fill:none;stroke-width:0.5px;stroke:black;"/>
        <path d="M109.125,387.105C110.047,388.126 110.984,389.134 111.89,390.17C112.187,390.509 112.813,391.724 113.385,391.759" style="fill:none;stroke-width:0.5px;stroke:black;"/>
        <path d="M110.109,385.664C110.911,386.684 111.718,387.699 112.515,388.723C112.809,389.1 113.808,390.887 114.475,390.801" style="fill:none;stroke-width:0.5px;stroke:black;"/>
        <path d="M111.424,385.175C111.542,385.325 114.152,389.446 115.259,389.446" style="fill:none;stroke-width:0.5px;stroke:black;"/>
        <path d="M111.597,383.153C113.378,385.311 114.965,387.767 116.921,389.779" style="fill:none;stroke-width:0.5px;stroke:black;"/>
        <path d="M112.74,382.117C113.975,383.543 115.929,386.661 117.911,387.474" style="fill:none;stroke-width:0.5px;stroke:black;"/>
        <path d="M113.266,380.273C113.545,380.584 116.563,384.776 118.077,385.019" style="fill:none;stroke-width:0.5px;stroke:black;"/>
        <path d="M115.472,379.812C117.358,381.591 119.409,384.033 121.733,385.374" style="fill:none;stroke-width:0.5px;stroke:black;"/>
        <path d="M116.595,378.62C117.782,379.616 120.657,382.826 122.749,383.032" style="fill:none;stroke-width:0.5px;stroke:black;"/>
        <path d="M118.044,376.335C119.203,377.461 121.543,380.613 123.666,380.613" style="fill:none;stroke-width:0.5px;stroke:black;"/>
        <path d="M119.639,374.625C121.344,376.035 123.304,378.186 125.508,378.897" style="fill:none;stroke-width:0.5px;stroke:black;"/>
        <path d="M120.55,372.107C122.692,373.873 124.863,376.091 127.302,377.485" style="fill:none;stroke-width:0.5px;stroke:black;"/>
        <path d="M122.197,370.78C123.891,372.165 126.831,375.59 129.176,376.25" style="fill:none;stroke-width:0.5px;stroke:black;"/>
        <path d="M123.773,369.461C125.76,371.416 127.683,373.571 130.033,375.115" style="fill:none;stroke-width:0.5px;stroke:black;"/>
        <path d="M125.016,367.808C126.927,369.773 128.861,372.057 131.111,373.703" style="fill:none;stroke-width:0.5px;stroke:black;"/>
        <path d="M126.079,367.319C128.231,369.213 130.299,371.308 132.546,373.101" style="fill:none;stroke-width:0.5px;stroke:black;"/>
        <path d="M126.75,364.523C128.907,366.316 131.298,369.104 133.849,370.383" style="fill:none;stroke-width:0.5px;stroke:black;"/>
        <path d="M127.887,363.288C129.881,364.676 132.068,366.858 134.301,367.921C135.142,368.321 136.555,368.806 136.912,367.658" style="fill:none;stroke-width:0.5px;stroke:black;"/>
        <path d="M130.957,362.423C133.047,363.788 136.351,366.956 139.193,366.417" style="fill:none;stroke-width:0.5px;stroke:black;"/>
        <path d="M133.084,359.074C134.965,360.205 137.462,362.496 139.71,363.019" style="fill:none;stroke-width:0.5px;stroke:black;"/>
        <path d="M135.318,356.35C137.542,357.982 139.941,360.276 142.462,361.536" style="fill:none;stroke-width:0.5px;stroke:black;"/>
        <path d="M140.083,355.839C142.061,357.439 141.851,357.627 143.545,358.45" style="fill:none;stroke-width:0.5px;stroke:black;"/>
        <path d="M140.229,347.801C141.838,348.946 145.51,352.798 147.872,352.903" style="fill:none;stroke-width:0.5px;stroke:black;"/>
        <path d="M140.023,351.668C142.271,353.13 145.004,355.478 147.879,355.478" style="fill:none;stroke-width:0.5px;stroke:black;"/>
        <path d="M144.622,346.099C146.723,347.805 149.801,351.152 152.638,351.902" style="fill:none;stroke-width:0.5px;stroke:black;"/>
        <path d="M148.976,345.808C151.506,347.512 153.809,349.15 156.665,350.193" style="fill:none;stroke-width:0.5px;stroke:black;"/>
        <path d="M101.589,250.515C95.417,251.258 88.973,254.13 84.515,258.588" style="fill:none;stroke-width:0.5px;stroke:black;"/>
        <path d="M93.573,245.095C87.339,246.461 81.999,249.159 76.945,253.105" style="fill:none;stroke-width:0.5px;stroke:black;"/>
        <path d="M59.937,333.932C64.467,336.764 68.647,338.868 73.815,340.19" style="fill:none;stroke-width:0.5px;stroke:black;"/>
        <path d="M66.059,330.64C71.037,333.047 76.523,336.33 82.202,336.33" style="fill:none;stroke-width:0.5px;stroke:black;"/>
        <path d="M70.053,325.34C73.608,326.438 77.165,327.517 80.793,328.356C82.459,328.741 84.792,329.44 86.443,328.632" style="fill:none;stroke-width:0.5px;stroke:black;"/>
        <path d="M146.011,293.903C148.313,294.297 150.615,294.697 152.913,295.114C153.337,295.191 156.856,296.019 157.097,295.378" style="fill:none;stroke-width:0.5px;stroke:black;"/>
        <path d="M147.676,290.45C150.707,291.464 154.457,293.165 157.814,293.165" style="fill:none;stroke-width:0.5px;stroke:black;"/>
        <path d="M150.849,289.183C153.833,290.112 156.342,290.907 159.33,291.359" style="fill:none;stroke-width:0.5px;stroke:black;"/>
        <path d="M154.456,288.635C157.062,289.336 159.577,290.04 162.129,290.867" style="fill:black;"/>
        <path d="M163.54,186.268C167.472,187.62 170.792,190.364 174.847,191.263" style="fill:none;stroke-width:0.5px;stroke:black;"/>
        <path d="M162.05,218.837C169.292,222.677 175.408,223.954 183.265,223.954" style="fill:none;stroke-width:0.5px;stroke:black;"/>
        <path d="M188.09,178.759C189.099,181.634 189.54,184.901 188.615,187.875C187.547,191.305 184.033,193.446 180.573,193.363C179.871,193.346 178.669,193.201 178.034,192.863" style="fill:none;stroke-width:0.5px;stroke:black;"/>
        <path d="M221.329,172.353C227.638,172.089 233.751,172.011 239.713,169.685" style="fill:none;stroke-width:0.5px;stroke:black;"/>
        <path d="M223.854,169.834C227.897,170.127 230.912,169.972 234.727,168.72" style="fill:none;stroke-width:0.5px;stroke:black;"/>
        <path d="M162.069,206.49C167.492,211.289 173.887,214.829 179.97,218.688C181.68,219.773 183.367,220.796 185.017,221.975C185.528,222.34 186.471,222.869 186.709,223.475" style="fill:none;stroke-width:0.5px;stroke:black;"/>
        <path d="M340.609,281.503C330.526,295.069 309.506,325.548 325.551,341.436C337.476,353.245 353.039,349.444 360.483,335.741C361.942,333.056 364.861,329.217 364.861,325.981" style="fill:none;stroke-width:0.5px;stroke-linecap:butt;stroke:black;"/>
        <path d="M337.579,295.823C332.053,300.919 328.521,309.191 327.392,314.611C326.796,317.477 326.504,320.77 326.827,323.692C329.753,350.13 366.642,330.247 357.22,311.64" style="fill:none;stroke-width:0.5px;stroke-linecap:butt;stroke:black;"/>
        <path d="M349.299,160.668C354.366,193.15 362.995,229.413 358.78,262.434C357.623,271.503 354.423,292.036 349.753,299.535" style="fill:none;stroke-width:0.5px;stroke:black;"/>
        <path d="M358.692,197.202C360.075,227.225 364.583,256.277 368.778,285.929C370.026,294.754 372.109,306.141 367.749,314.478C366.181,317.477 362.661,321.658 360.306,324.088C359.576,324.841 356.032,325.924 355.856,324.088" style="fill:none;stroke-width:0.5px;stroke:black;"/>
        <path d="M358.301,272.726C363.145,282.732 373.571,312.79 360.056,320.72" style="fill:none;stroke-width:0.5px;stroke:black;"/>
        <path d="M375.033,132.233C374.426,148.997 373.522,165.513 375.121,182.257C377.803,210.327 385.039,237.194 380.562,265.668C379.701,271.142 376.853,275.602 375.228,280.804" style="fill:none;stroke-width:0.5px;stroke:black;"/>
        <path d="M383.752,134.108C383.936,149.99 383.464,165.92 385.101,181.744C386.421,194.517 389.828,207.196 390.134,220.054C390.465,233.923 387.921,247.723 386.181,261.449" style="fill:none;stroke-width:0.5px;stroke:black;"/>
        <path d="M389.442,152.798C388.815,185.468 400.456,218.04 383.486,248.338" style="fill:none;stroke-width:0.5px;stroke:black;"/>
        <path d="M321.119,227.603C313.892,241.279 301.577,251.854 292.726,264.647C282.187,279.88 276.11,299.081 276.049,317.561C276.01,329.146 279.787,352.239 295.616,352.239" style="fill:none;stroke-width:0.5px;stroke:black;"/>
        <path d="M289.697,107.887C293.081,129.437 295.3,153.144 305.947,172.663C319.77,198.005 342.828,209.88 339.799,243.59" style="fill:none;stroke-width:0.5px;stroke:black;"/>
        <path d="M320.374,204.939C323.598,221.81 327.71,238.529 323.494,255.66C318.689,275.184 306.617,290.793 304.051,310.978C303.033,318.984 298.849,346.048 305.062,351.955" style="fill:none;stroke-width:0.5px;stroke:black;"/>
        <path d="M285.551,58.056C312.792,85.991 319.499,123.67 329.45,160.197C333.215,174.02 340.215,201.572 357.009,206.548" style="fill:none;stroke-width:0.5px;stroke:black;"/>
        <path d="M377.572,68.939C395.387,99.769 410.199,141.186 396.838,176.455" style="fill:none;stroke-width:0.5px;stroke:black;"/>
        <path d="M184.346,269.944C176.6,289.506 177.285,311.398 171.893,331.708C170.395,337.35 168.461,345.404 163.958,349.573C162.723,350.717 159.963,351.803 158.28,352.112C157.282,352.296 154.223,352.085 155.237,352.085" style="fill:none;stroke-width:0.5px;stroke:black;"/>
        <path d="M190.049,271.036C187.046,282.245 185.337,293.698 185.104,305.317C184.883,316.377 186.043,327.855 183.643,338.747C181.865,346.816 178.396,355.963 173.221,362.556C172.674,363.252 164.727,366.944 164.727,364.784" style="fill:none;stroke-width:0.5px;stroke:black;"/>
        <path d="M317.536,193.321C321.604,199.515 326.605,206.01 329.737,212.774C336.738,227.892 336.602,245.528 330.536,260.876C325.403,273.862 314.192,283.667 308.616,296.376C305.762,302.881 304.942,309.834 305.026,316.88C305.176,329.482 313.335,338.772 324.075,344.251C329.166,346.848 335.244,349.301 339.548,344.065" style="fill:none;stroke-width:0.5px;stroke:black;"/>
        <path d="M314.624,49.05C335.671,50.45 350.824,61.644 364.549,76.761C380.194,93.991 392.017,112.057 397.528,134.878" style="fill:none;stroke-width:0.5px;stroke:black;"/>
        <path d="M346.938,51.007C363.105,58.486 376.322,72.849 382.973,89.544" style="fill:none;stroke-width:0.5px;stroke:black;"/>
        <path d="M178.387,144.995C178.039,146.166 177.687,147.429 177.318,148.704" style="fill:none;stroke-width:0.5px;stroke:black;"/>
    </g>
</svg>
