<?xml version="1.0" standalone="no"?>
<!DOCTYPE svg PUBLIC "-//W3C//DTD SVG 1.1//EN" "http://www.w3.org/Graphics/SVG/1.1/DTD/svg11.dtd" >
<svg xmlns="http://www.w3.org/2000/svg" xmlns:xlink="http://www.w3.org/1999/xlink" version="1.1">
<metadata></metadata>
<defs>
<font id="savoyeregular" horiz-adv-x="819" >
<font-face units-per-em="2048" ascent="1638" descent="-410" />
<missing-glyph horiz-adv-x="354" />
<glyph horiz-adv-x="0" />
<glyph unicode="&#xd;" horiz-adv-x="354" />
<glyph unicode=" "  horiz-adv-x="354" />
<glyph unicode="&#x09;" horiz-adv-x="354" />
<glyph unicode="&#xa0;" horiz-adv-x="354" />
<glyph unicode="!" horiz-adv-x="540" d="M61 70q0 -35 24 -58.5t58 -23.5q35 0 57.5 23.5t22.5 58.5t-22.5 57.5t-57.5 22.5t-58.5 -23t-23.5 -57zM156 233l28 13l254 1020l-133 -60z" />
<glyph unicode="&#x22;" horiz-adv-x="249" d="M51 625h17l41 114q6 20 10 34.5t4 23.5q0 29 -29 28q-16 0 -23.5 -10t-9.5 -39l-2 -20zM150 625h16l39 114q16 43 16 58q0 29 -31 28q-16 0 -22 -10t-10 -39v-20z" />
<glyph unicode="#" d="M68 0h684v1366h-684v-1366zM82 14v1338h655v-1338h-655z" />
<glyph unicode="$" horiz-adv-x="581" d="M-57 96q29 -41 76 -68.5t100 -35.5l-23 -107h25l20 105h23h12l-20 -105h22l23 107q92 14 150.5 76.5t58.5 148.5q0 57 -26 106.5t-87 108.5l-4 4l67 330q57 -25 105 -94l49 53q-53 72 -143 90l20 107h-22l-23 -103q-8 0 -12 1t-12 1q-7 0 -11 -2l21 103h-23l-20 -105 q-41 -4 -75 -22.5t-60.5 -46t-41 -63.5t-14.5 -75q0 -47 23.5 -92t79.5 -102l4 -4l-76 -369q-92 39 -127 117zM145 653q0 51 39 88t97 41l-58 -280l-8 8q-35 39 -52.5 72.5t-17.5 70.5zM152 37l71 354l4 -4q10 -10 15.5 -15t11.5 -10l-70 -331q-8 2 -14 2q-4 0 -12 2z M209 29l63 311l4 -4q84 -86 84 -160q0 -63 -42 -103t-109 -44zM244 483l61 297q10 0 16.5 -1t16.5 -5l-66 -319z" />
<glyph unicode="%" horiz-adv-x="886" d="M47 530q0 -84 42 -131t114 -47q43 0 84 24.5t71.5 65.5t49 94.5t18.5 112.5q0 72 -27 117q63 -29 119 -29q39 0 65.5 9.5t59.5 31.5l-561 -798l22 -17l629 897l-28 21q-29 -57 -77 -88t-108 -31q-35 0 -63.5 8t-87.5 35q-37 16 -53.5 20t-36.5 4q-45 0 -87 -24.5 t-74 -66.5t-51.5 -96t-19.5 -112zM119 496q0 51 16.5 113.5t42.5 115.5q41 80 103 80q73 0 73 -109q0 -61 -13 -119.5t-34.5 -102.5t-49.5 -71.5t-58 -27.5q-80 0 -80 121zM371 160q0 -84 42 -131t113 -47q45 0 85 24.5t71 65.5t49.5 96.5t18.5 114.5q0 82 -41 129t-109 47 q-45 0 -87 -24.5t-73.5 -65.5t-50 -95.5t-18.5 -113.5zM442 125q0 51 16.5 113.5t43.5 115.5q39 80 102 80q74 1 74 -108q0 -61 -13.5 -120t-35 -103t-49 -71.5t-58.5 -27.5q-80 0 -80 121z" />
<glyph unicode="&#x26;" horiz-adv-x="1533" d="M100 332q0 -80 30 -146.5t85 -113.5t132 -73t171 -26q156 0 297 74l8 4h2q119 -72 250 -71q188 0 309 180l-14 16q-59 -76 -114.5 -106.5t-137.5 -30.5q-53 0 -102 15.5t-103 49.5l-6 2q55 43 102.5 94.5t81 106.5t53 110.5t19.5 104.5q0 78 -50 132.5t-122 54.5 q-82 0 -149.5 -61.5t-96.5 -162.5l52 -77q68 246 209 245q53 0 86.5 -40t33.5 -103q0 -47 -18 -98.5t-51 -103.5t-78 -99t-96 -84q-72 51 -128.5 109.5t-107.5 130.5q-31 45 -57.5 97t-46 106.5t-31.5 106.5t-14 99q25 10 44 21.5t72 42.5q29 16 46.5 26t29.5 17.5 t20.5 11.5t16.5 10q180 115 180 238q0 55 -40 91t-101 36q-53 0 -110.5 -32t-104.5 -89q-55 -66 -87 -168t-34 -211v-2v-4l-6 -4q-160 -92 -242 -198.5t-82 -227.5zM207 383q0 205 225 348v-6q6 -102 36 -198.5t77 -180.5t110.5 -154.5t139.5 -119.5q-102 -45 -213 -45 q-80 0 -148.5 26.5t-119 74.5t-79 112.5t-28.5 142.5zM498 803v16v25q0 78 19.5 148.5t52 122.5t75.5 83t92 31q47 0 72 -24.5t25 -67.5q0 -51 -32 -105.5t-87 -97.5q-39 -29 -95 -62.5t-122 -68.5z" />
<glyph unicode="'" horiz-adv-x="153" d="M51 625h17l41 114q6 20 10 34.5t4 23.5q0 29 -29 28q-16 0 -23.5 -10t-9.5 -39l-2 -20z" />
<glyph unicode="(" horiz-adv-x="681" d="M182 330q0 -203 58.5 -331t169.5 -169l6 25q-86 37 -124 119.5t-38 224.5q0 102 18.5 235t50 269.5t71.5 260t83 210.5q57 113 117.5 173t144.5 85l4 24q-72 -8 -145.5 -64.5t-138.5 -152.5q-59 -88 -110.5 -200.5t-88.5 -234.5t-57.5 -244t-20.5 -230z" />
<glyph unicode=")" horiz-adv-x="681" d="M-78 -170q72 8 145.5 64.5t139.5 152.5q59 88 110.5 200.5t88 233.5t58 244t21.5 231q0 203 -59 331t-170 169l-4 -24q84 -37 123 -120t39 -225q0 -102 -19.5 -235t-50.5 -268t-72 -260t-84 -211q-55 -113 -117.5 -174.5t-144.5 -83.5z" />
<glyph unicode="*" horiz-adv-x="477" d="M190 1147l121 6l-112 -96l18 -35l94 100l-30 -135h32l29 143l59 -98l29 25l-74 96l125 -6l8 37l-120 -4l112 90l-18 26l-107 -98l33 139h-33l-26 -139l-54 98l-32 -26l69 -90l-114 4z" />
<glyph unicode="+" d="M68 0h684v1366h-684v-1366zM82 14v1338h655v-1338h-655z" />
<glyph unicode="," horiz-adv-x="475" d="M-8 -141l14 -23q41 20 77 50t62.5 62t42 65.5t15.5 62.5q0 35 -20.5 58.5t-53.5 23.5q-37 0 -63.5 -30t-26.5 -71q0 -63 57 -63q14 0 24.5 5t26.5 17q-10 -35 -51 -75.5t-104 -81.5z" />
<glyph unicode="-" horiz-adv-x="485" d="M47 283h246l8 45h-244z" />
<glyph unicode="." horiz-adv-x="475" d="M47 59q0 -70 70 -69q35 0 60.5 27.5t25.5 68.5q0 33 -19.5 53.5t-52.5 20.5q-35 0 -59.5 -30t-24.5 -71z" />
<glyph unicode="/" horiz-adv-x="774" d="M-20 -143l24 -13l846 1590l-25 12z" />
<glyph unicode="0" horiz-adv-x="694" d="M0 264q0 -129 57.5 -204.5t155.5 -75.5q123 0 231 133q70 84 113 203.5t43 230.5q0 123 -59.5 198.5t-157.5 75.5q-53 0 -107.5 -27.5t-95.5 -76.5q-84 -92 -132 -216t-48 -241zM84 205q0 78 20.5 175t57.5 191q90 231 221 232q61 0 95 -52.5t34 -144.5 q0 -88 -23.5 -195.5t-64.5 -197.5q-49 -109 -99.5 -158t-109.5 -49q-63 0 -97 51.5t-34 147.5z" />
<glyph unicode="1" horiz-adv-x="393" d="M-68 0h304l6 27h-37q-41 0 -53.5 8t-12.5 33q0 10 3 31.5t8 41.5l88 426q10 49 17 84t14 61.5t13.5 49t14.5 45.5h-29q-29 -23 -57.5 -44.5t-69.5 -49.5l-110 -78l-21 -14l6 -23l84 45q33 16 47 16q20 0 21 -26q0 -6 -1 -14.5t-5 -24.5l-8 -37l-84 -418l-9 -37 q-10 -47 -28.5 -61t-67.5 -14h-28z" />
<glyph unicode="2" horiz-adv-x="604" d="M-109 -8q43 10 75 15t71 5q29 0 61.5 -3t102.5 -11q41 -4 64.5 -5t47.5 -1q31 0 50.5 2t48.5 8l59 180h-14q-27 -55 -62 -78.5t-88 -23.5h-24t-27 2l-80 6q-16 0 -34.5 1t-35.5 1q-27 0 -43 -1t-43 -5q29 23 47.5 36t51.5 38q47 35 82 61.5t62.5 49t50 42t44.5 39.5 q78 76 113 139.5t35 133.5q0 92 -58.5 148t-154.5 56q-49 0 -97.5 -18t-85 -49t-59 -70t-22.5 -78q0 -35 20.5 -57.5t54.5 -22.5q35 0 52 29q-29 8 -44.5 30.5t-15.5 53.5t13.5 57.5t37 48t54 34t65.5 12.5q68 0 110 -49.5t42 -129.5q0 -45 -12.5 -85.5t-39 -83.5 t-69.5 -90.5t-104 -102.5q-33 -29 -73 -61.5t-81 -64.5t-79 -60.5t-69 -49.5v-28z" />
<glyph unicode="3" horiz-adv-x="630" d="M-61 150q0 -72 64.5 -120t160.5 -48q63 0 121.5 24.5t102.5 66.5t69.5 98t25.5 120q0 86 -49 148.5t-135 84.5l238 256l-9 27h-229q-23 0 -53.5 1t-52.5 3q-16 2 -27.5 4t-28.5 8l-76 -186h21q14 29 27.5 46t29 27.5t37 13.5t53.5 3h50h172l-236 -258q92 -18 148.5 -82.5 t56.5 -150.5q0 -45 -18.5 -85t-49 -71t-70.5 -49.5t-85 -18.5q-39 0 -74 15.5t-60.5 41t-40 61.5t-14.5 77v16q0 8 4 21q-35 -4 -54 -29t-19 -65z" />
<glyph unicode="4" horiz-adv-x="626" d="M-55 250l16 -17q33 16 67.5 25.5t77.5 9.5q33 0 69 -5t81 -15h6l-63 -248h90l35 233q57 -10 94 -10q23 0 38 2t36 8l36 89q-35 -14 -53 -18.5t-47 -4.5q-23 0 -37 1t-49 9h-6l41 277l-31 -19l-63 -248q-6 2 -15 3q-12 4 -26 4h-25q-41 0 -87 -10.5t-118 -34.5l-16 -7 q23 25 48.5 56.5t50 66.5t48 70t39.5 65q27 49 46.5 86t29.5 70t15.5 62.5t5.5 60.5q0 6 -1.5 12t-1.5 17l-104 -62q4 -16 6 -26.5t2 -26.5q0 -59 -24.5 -132t-65.5 -144q-43 -74 -76.5 -121t-68.5 -78z" />
<glyph unicode="5" horiz-adv-x="585" d="M-68 121q0 -63 50.5 -102t136.5 -39q68 0 128 26.5t105 71.5t72 105.5t27 129.5q0 55 -19.5 102.5t-53.5 82t-81 54t-100 19.5q-41 0 -86 -14l57 164q16 4 25 4h22h18t19 -2l78 -4q23 -2 49.5 -3t42.5 -1q25 0 37 1t30 5l50 139h-21q-14 -31 -38.5 -43t-67.5 -12 q-12 0 -34 1t-42 3q-31 4 -59.5 5t-40.5 1q-20 0 -33 -2t-35 -6l-117 -346l23 -6q29 16 54.5 24t53.5 8q45 0 83 -17t66.5 -48t45 -72t16.5 -88q0 -53 -18.5 -98t-50 -79t-74.5 -53.5t-92 -19.5q-72 0 -118 42t-46 108q0 25 10 51q-31 0 -51.5 -25.5t-20.5 -66.5z" />
<glyph unicode="6" horiz-adv-x="636" d="M0 246q0 -127 52 -195.5t151 -68.5q59 0 114.5 30.5t98.5 80.5t68.5 114.5t25.5 132.5q0 92 -48 147.5t-126 55.5q-142 0 -232 -172q4 41 22.5 103.5t43.5 113.5q47 98 106.5 152.5t122.5 54.5q82 0 82 -82q0 -18 -4 -33.5t-16 -34.5q8 -2 16 -2q31 0 54.5 23.5 t23.5 56.5q0 43 -36 71.5t-91 28.5q-80 0 -156.5 -50t-137 -131t-97.5 -185.5t-37 -210.5zM82 170q0 27 6 59.5t16.5 66.5t23.5 63.5t30 52.5q61 90 151 90q111 0 111 -148q0 -68 -18.5 -131t-48 -112.5t-69.5 -78t-83 -28.5q-119 0 -119 166z" />
<glyph unicode="7" horiz-adv-x="483" d="M-6 -31l145 74q14 78 40 158t71 172q25 53 49.5 99t54 93t65.5 96.5t83 108.5l14 16v21h-264q-68 0 -99.5 4t-64.5 14l-74 -188h19q29 55 58.5 72.5t92.5 17.5h49h203q-55 -70 -124.5 -177.5t-137.5 -227.5q-20 -35 -37.5 -67t-36 -67.5t-41 -83t-55.5 -112.5z" />
<glyph unicode="8" horiz-adv-x="665" d="M-20 197q0 -94 71.5 -152.5t188.5 -58.5q59 0 109 17t87 49t58.5 75t21.5 94q0 53 -26.5 94t-96.5 95l-8 8q86 33 139.5 94t53.5 133q0 76 -61.5 126t-156.5 50q-49 0 -92 -16.5t-74.5 -45t-50 -66.5t-18.5 -83q0 -47 17.5 -83t64.5 -81q-104 -35 -165.5 -102.5 t-61.5 -146.5zM55 217q0 74 47 132t125 81q31 -20 69 -50t66 -54q80 -66 80 -146q0 -72 -50 -120t-128 -48q-43 0 -82 15.5t-66.5 43t-44 65.5t-16.5 81zM184 653q0 59 48.5 100.5t117.5 41.5q66 0 112 -46.5t46 -113.5q0 -63 -42.5 -120.5t-103.5 -80.5q-92 63 -135 115.5 t-43 103.5z" />
<glyph unicode="9" horiz-adv-x="626" d="M35 512q0 -92 50 -147.5t134 -55.5q104 0 176 84q-29 -102 -123 -210.5t-235 -202.5l14 -19q59 29 132 81t134 110q104 98 159.5 210.5t55.5 225.5q0 111 -54 173t-150 62q-57 0 -110.5 -25.5t-93.5 -68.5t-64.5 -99.5t-24.5 -117.5zM125 492q0 61 16.5 116.5t45 97.5 t64.5 67.5t77 25.5q59 0 92 -42t33 -118q0 -59 -17.5 -114.5t-47.5 -97.5t-68.5 -66.5t-79.5 -24.5q-53 0 -84 42t-31 114z" />
<glyph unicode=":" horiz-adv-x="475" d="M47 59q0 -70 70 -69q35 0 60.5 27.5t25.5 68.5q0 33 -19.5 53.5t-52.5 20.5q-35 0 -59.5 -30t-24.5 -71zM131 469q0 -33 18.5 -52.5t51.5 -19.5q35 0 60.5 29t25.5 70q0 33 -19.5 52t-52.5 19q-35 0 -59.5 -28.5t-24.5 -69.5z" />
<glyph unicode=";" horiz-adv-x="475" d="M-8 -141l14 -23q41 20 77 50t62.5 62t42 65.5t15.5 62.5q0 35 -20.5 58.5t-53.5 23.5q-37 0 -63.5 -30t-26.5 -71q0 -63 57 -63q14 0 24.5 5t26.5 17q-10 -35 -51 -75.5t-104 -81.5zM133 469q0 -33 18.5 -52.5t51.5 -19.5q35 0 60.5 29t25.5 70q0 33 -19.5 52t-50.5 19 q-35 0 -60.5 -28.5t-25.5 -69.5z" />
<glyph unicode="&#x3c;" d="M68 0h684v1366h-684v-1366zM82 14v1338h655v-1338h-655z" />
<glyph unicode="=" d="M68 0h684v1366h-684v-1366zM82 14v1338h655v-1338h-655z" />
<glyph unicode="&#x3e;" d="M68 0h684v1366h-684v-1366zM82 14v1338h655v-1338h-655z" />
<glyph unicode="?" horiz-adv-x="688" d="M131 70q0 -35 22.5 -58.5t57.5 -23.5t58.5 23.5t23.5 58.5t-23.5 57.5t-58.5 22.5t-57.5 -23t-22.5 -57zM154 1065l28 -104q31 55 72 104t86 86t89 57.5t81 20.5q45 0 74.5 -30t29.5 -75q0 -39 -22.5 -85t-81.5 -124q-10 -12 -19.5 -24t-22.5 -30.5t-33.5 -44 t-53.5 -66.5q-66 -82 -99.5 -126t-52.5 -73q-63 -100 -63 -180q0 -66 41 -107t104 -41h11l26 68q-27 -10 -41 -14.5t-31 -4.5q-74 0 -73 66q0 18 6 37.5t22.5 46.5t45 63.5t73.5 92.5l88 108q113 137 164 234.5t51 173.5q0 78 -46 124t-122 46q-86 0 -177 -55.5t-154 -143.5 z" />
<glyph unicode="@" d="M68 0h684v1366h-684v-1366zM82 14v1338h655v-1338h-655z" />
<glyph unicode="A" horiz-adv-x="1335" d="M-82 -43q18 -4 29.5 -5t27.5 -1q98 0 199.5 32.5t197 92t179.5 145.5t151 191q104 -74 185.5 -183.5t118.5 -228.5h65l94 442h72l6 35h-72l154 719q4 10 6 39q2 12 3 23.5t1 17.5q0 65 -61 65h-2q-29 0 -57.5 -17t-61.5 -58t-74 -111t-96 -176l-94 -182q-16 -33 -40 -74 t-49.5 -84t-51 -85t-46.5 -77q-98 -154 -184 -235q-215 -215 -487 -215q-20 0 -37 1t-43 5zM723 442h348l-65 -313q-63 100 -127 172t-152 139zM750 477q8 12 26.5 44t46.5 85l95 174q10 16 15 26.5t23 45.5q16 29 28.5 54.5t29.5 54.5q45 88 77.5 144t55 89t38 45t27.5 12 q20 0 21 -24q0 -16 -6 -37q0 -6 -6 -33l-144 -680h-327z" />
<glyph unicode="B" horiz-adv-x="1021" d="M0 94q0 -112 67 -112h1q45 0 89 63.5t93 198.5q33 92 63.5 190t56 197.5t46 194t33.5 178.5l2 18q29 37 66.5 75t88.5 79q140 116 230 116h2q49 0 79.5 -35.5t30.5 -93.5q0 -51 -18.5 -100t-59.5 -111q-59 -92 -144 -172t-173 -129l-8 -49q20 6 33.5 8t31.5 2 q88 0 140.5 -55t52.5 -154q0 -78 -27.5 -149.5t-74 -125.5t-108 -86t-128.5 -32q-109 0 -180 78l-49 -63q55 -51 182 -52q152 0 268 80q102 70 161.5 169.5t59.5 201.5t-68.5 165.5t-176.5 63.5h-19q-6 0 -18 -2q43 29 93 74t103 98q98 106 151.5 204.5t53.5 176.5 q0 70 -35 110t-94 40q-82 0 -191.5 -68.5t-244.5 -204.5q2 10 2 17v10l12 80q2 10 4 30.5t6 49.5l2 24l-102 -47q-2 -31 -4 -58.5t-10 -90.5q-4 -31 -6.5 -51.5t-4.5 -36t-3 -26.5t-3 -26q-72 -84 -139.5 -197.5t-116.5 -238.5q-23 -55 -40 -114.5t-30.5 -117t-20.5 -107.5 t-7 -87zM43 229q16 80 43 166q43 141 110.5 273.5t145.5 226.5q-8 -59 -18.5 -113.5t-30.5 -134.5q-31 -129 -70 -255t-73 -216q-31 -78 -50.5 -105.5t-42.5 -29.5h-3q-27 0 -27 57q0 51 16 131z" />
<glyph unicode="C" horiz-adv-x="987" d="M27 395q0 -96 26.5 -174t75.5 -133t118.5 -85t153.5 -30q244 0 482 238l-13 20l-16 -12q-117 -102 -208 -145t-187 -43q-147 0 -234.5 109.5t-87.5 297.5q0 162 56.5 314.5t166.5 289.5q49 59 103.5 108.5t111 85.5t110.5 55.5t101 19.5q53 0 85 -30t32 -77 q0 -49 -27.5 -100t-75.5 -97t-112.5 -84t-138.5 -59l29 -76q74 20 140 63.5t116.5 99t81 117.5t30.5 122q0 68 -42 108.5t-113 40.5q-59 0 -127 -25.5t-137.5 -71.5t-138.5 -110.5t-128 -144.5q-113 -147 -173 -299.5t-60 -292.5z" />
<glyph unicode="D" horiz-adv-x="1452" d="M-27 70q0 -47 45 -75t123 -28q72 0 139.5 19.5t145.5 62.5l25 -8q193 -68 362 -68q111 0 204 36t161.5 99.5t106.5 151.5t38 193q0 162 -98.5 326.5t-276.5 299.5l8 31l19 86q8 29 13 61.5t13 79.5l-110 -47q-2 -31 -8 -70.5t-17 -78.5q-266 164 -467 164 q-61 0 -111 -16.5t-87 -46.5t-57.5 -71t-20.5 -90q0 -78 51 -149.5t137 -116.5l62 62q-98 43 -155.5 104t-57.5 123q0 66 49 103.5t135 37.5q51 0 115.5 -15.5t131 -41t133.5 -62t122 -79.5q-12 -61 -27.5 -121t-40.5 -150q-25 -88 -47 -156.5t-42.5 -124t-41 -102.5 t-45.5 -90q-35 -66 -61.5 -102.5t-61.5 -71.5l-24 6q-100 29 -165 41t-112 12q-92 0 -148.5 -32.5t-56.5 -85.5zM14 61q0 27 24.5 41.5t67.5 14.5q49 0 123 -14.5t160 -41.5q-63 -35 -121.5 -51t-117.5 -16t-97.5 19.5t-38.5 47.5zM518 115q82 72 145.5 172t122.5 250 q14 35 23.5 60.5t20 55t22.5 69.5t31 101q10 35 16 58.5t11 42t8.5 33t7.5 32.5q352 -291 352 -569q0 -82 -28.5 -151.5t-79 -121t-118 -81t-145.5 -29.5q-74 0 -159.5 16.5t-202.5 52.5z" />
<glyph unicode="E" horiz-adv-x="1026" d="M0 240q0 -123 96.5 -194t261.5 -71q100 0 222 32t251 91l25 121q-190 -104 -328.5 -151.5t-242.5 -47.5q-102 0 -165 51.5t-63 133.5q0 164 252 350q82 59 152.5 100t150.5 76l15 66h-19q-41 2 -59.5 4t-36.5 8q-29 10 -46 36.5t-17 55.5q0 61 57 137t160 146 q74 51 150.5 81.5t127.5 30.5q84 0 84 -67q0 -49 -41 -121t-117 -154l54 -57q86 84 135 175t49 163q0 47 -29.5 75.5t-83.5 28.5q-74 0 -180 -45t-221 -127q-231 -168 -232 -301q0 -94 107 -112q-225 -113 -347 -246t-122 -268z" />
<glyph unicode="F" horiz-adv-x="1116" d="M-82 -12q41 -14 81 -20.5t95 -6.5q219 0 385 122t264 355l2 4h248l8 35h-241q14 33 33.5 88.5t35.5 108.5q18 57 41 132t42.5 148.5t36 141t26.5 114.5v7l8 -3q57 -8 108.5 -15t98.5 -17l18 -2l45 90l-18 2q-63 10 -143 20.5t-161 17.5t-157 12t-129 5q-123 0 -222 -16.5 t-163 -46.5q-74 -35 -115 -86.5t-41 -110.5q0 -92 85 -152.5t231 -68.5l69 69q-354 23 -354 162q0 31 19.5 60.5t52.5 52.5q47 31 121.5 45t185.5 14q94 0 201.5 -7t230.5 -21q10 -2 15 -2q4 0 10 -2l-105 -48q-10 -53 -20 -104t-31 -133q-18 -74 -34.5 -133.5t-32 -109.5 t-29.5 -95t-33 -94l-6 -17l-2 -6h-107l-6 -35h101l-2 -4q-23 -57 -42.5 -101t-41 -79t-44 -64.5t-51.5 -56.5q-135 -133 -309 -133q-109 0 -227 59z" />
<glyph unicode="G" horiz-adv-x="968" d="M27 356q0 -82 23.5 -149.5t65.5 -116.5t100 -76.5t128 -27.5q96 0 189.5 46t177.5 134l2 4l-17 -78q-14 -70 -26.5 -118t-25.5 -83.5t-27.5 -63.5t-34.5 -54q-47 -66 -120 -99.5t-161 -33.5q-117 0 -229 61l-31 -72q76 -35 188 -35q76 0 148 20.5t135 59.5t115.5 93.5 t89.5 121.5q14 27 25.5 50.5t20.5 52t17 65.5t21 93l61 299l-104 -60l-35 -172l-4 -4q-86 -86 -161 -126t-148 -40q-127 0 -200 98.5t-73 264.5q0 80 17.5 163.5t50.5 167.5t79 163t105 149q98 119 212 189.5t206 70.5q53 0 88 -30t35 -77q0 -49 -26.5 -100t-75 -97 t-114 -83t-141.5 -62l35 -78q76 25 142.5 67t115.5 96.5t77 115.5t28 123q0 72 -43 112.5t-115 40.5q-55 0 -118.5 -22.5t-130 -64.5t-133 -100t-126.5 -130q-133 -160 -205.5 -334t-72.5 -334z" />
<glyph unicode="H" horiz-adv-x="1411" d="M-82 -37q31 -6 53.5 -8t53.5 -2q106 0 209.5 26.5t181.5 73.5q88 53 169 156.5t138 232.5l2 7q55 -29 109.5 -77t103.5 -107.5t88 -128t64 -136.5h61l283 1348l-105 -54l-170 -817h-422l2 6q31 66 66 171.5t66.5 221t57 228.5t38.5 192l-113 -55l-4 -18l-35 -179 q-10 -51 -24.5 -110.5t-30 -119.5t-32.5 -118.5t-32 -105.5q-41 -123 -81 -212t-87 -161q-66 -98 -165 -154.5t-209 -56.5q-47 0 -95.5 8.5t-107.5 26.5zM807 442h344l-64 -305q-25 37 -57.5 79t-70 83t-76.5 78t-76 65z" />
<glyph unicode="I" horiz-adv-x="872" d="M-68 -25q23 -8 45.5 -10t59.5 -2q203 0 353.5 96.5t273.5 305.5q23 -4 37 -6.5t34 -2.5t33.5 2t32.5 7l8 28q-23 -8 -36 -10t-32 -2q-16 0 -29.5 2t-29.5 10q37 68 67.5 154t54 177t37 181t13.5 166q0 135 -33 206t-92 71q-45 0 -93 -46.5t-93 -132.5q-53 -98 -81 -203.5 t-28 -201.5q0 -139 39 -229.5t121 -143.5l-6 -16q-49 -104 -93 -166t-104 -109q-104 -86 -233 -86q-106 0 -195 39zM508 715q0 106 18.5 212.5t47 192.5t64.5 140.5t73 54.5q63 0 63 -141q0 -39 -6 -97.5t-18.5 -127t-28.5 -146.5t-37 -154q-20 -78 -38 -131t-36 -94 q-102 70 -102 291z" />
<glyph unicode="J" horiz-adv-x="884" d="M-68 -147q0 -74 39 -116t111 -42q76 0 163 56t174 156.5t168 236t144 294.5q37 4 57.5 6t51.5 2l4 29h-15q-18 0 -37.5 -1t-48.5 -5q27 70 49.5 147.5t38 156.5t24.5 152.5t9 135.5q0 285 -123 285q-49 0 -98 -45.5t-90 -126.5q-45 -92 -68.5 -185.5t-23.5 -179.5 q0 -74 12 -124t47 -99l72 61q-35 49 -50.5 108.5t-15.5 137.5q0 74 16.5 145.5t43 130t59.5 94t68 35.5q29 0 46 -39.5t17 -111.5q0 -41 -5 -100.5t-15 -124.5q-16 -102 -44 -209t-73 -242l-6 -20q-141 -35 -252 -88.5t-209 -131.5q-111 -90 -175.5 -191t-64.5 -187z M-2 -156q0 84 53 180.5t146 180.5q80 72 191 127t228 84q-16 -43 -26 -72t-31 -72q-51 -117 -92 -192.5t-82 -132.5q-164 -225 -291 -226q-43 0 -69.5 35t-26.5 88z" />
<glyph unicode="K" horiz-adv-x="1435" d="M-70 -35q23 -8 44.5 -10t62.5 -2q139 0 249.5 37t202.5 110q53 43 97.5 95.5t84.5 120t75.5 152.5t72.5 194q25 74 49.5 161.5t46 179t40 180.5t30.5 167l-108 -54l-5 -24q-10 -61 -26.5 -136t-35.5 -157t-40.5 -167t-46.5 -165q-23 -78 -42 -137t-38.5 -107.5t-40 -86 t-45.5 -74.5q-78 -117 -175 -176.5t-208 -59.5q-49 0 -103.5 8.5t-107.5 24.5zM791 469q131 -291 348 -485l69 67q-49 39 -98 92.5t-94 113.5t-83 123.5t-65 123.5l731 801h-106z" />
<glyph unicode="L" horiz-adv-x="1187" d="M-27 100q0 -59 59.5 -94t157.5 -35q86 0 169 32t145 91q35 -10 65.5 -18t71.5 -23q49 -16 84 -26.5t61.5 -17.5t50 -12t50.5 -9q70 -12 119 -13h22q12 0 29 5l43 96q-33 -6 -55.5 -8t-51.5 -2q-33 0 -70.5 5t-84.5 16t-107.5 28.5t-136.5 44.5l-27 8q25 29 44.5 62.5 t36 75.5t30.5 94.5t29 117.5l90 418q10 51 19 87t16.5 63.5t16.5 48t19 43.5q35 66 79 100.5t93 34.5q47 0 73 -32t26 -91q0 -61 -28 -152.5t-69 -171.5l93 15q14 33 26.5 70.5t21.5 74.5t14 69.5t5 57.5q0 88 -42 137t-116 49q-66 0 -133 -50t-120 -136q-37 -59 -63 -140 t-56 -227l-72 -333q-23 -102 -42 -161t-46 -108q-80 25 -152.5 36t-138.5 11q-117 0 -182.5 -34.5t-65.5 -96.5zM8 92q0 37 40 57.5t112 20.5q51 0 112.5 -12.5t159.5 -40.5l25 -6q-51 -55 -120 -85t-147 -30t-130 27.5t-52 68.5z" />
<glyph unicode="M" horiz-adv-x="1421" d="M55 895l76 -49q10 72 23.5 142.5t31.5 131.5q61 203 136 203q31 0 48 -33t17 -88q0 -41 -7 -101.5t-24 -156.5q-12 -74 -23 -136.5t-23.5 -127t-29 -141t-38.5 -181.5q-16 -66 -24.5 -105.5t-16.5 -68.5l-43 -170l-2 -14h84q14 59 33.5 124.5t50.5 156.5 q51 154 104 283.5t125 275.5q94 193 161.5 283.5t114.5 90.5q37 0 37 -47q0 -16 -2 -32.5t-8 -47.5l-231 -1087h82q72 328 217 651q51 113 93 194t87 146q53 80 87 115t62 35q39 0 39 -45q0 -20 -6 -52l-8 -34l-211 -1010h96l207 983q10 47 13 70.5t3 46.5q0 47 -23.5 75.5 t-66.5 28.5q-41 0 -84 -32.5t-93 -101.5t-107.5 -177.5t-126.5 -261.5q-14 -33 -24.5 -54.5t-16.5 -37t-10.5 -27.5t-8.5 -25l115 555q18 92 18 136q0 47 -23.5 75.5t-64.5 28.5q-123 0 -292 -334q-66 -125 -120.5 -244.5t-88.5 -216.5l-7 -18l41 217q8 51 13.5 81t8.5 48.5 t5 30.5t4 28q18 125 19 226q0 117 -36 185.5t-102 68.5q-43 0 -85 -36t-76.5 -97.5t-60 -145.5t-38.5 -180z" />
<glyph unicode="N" horiz-adv-x="1050" d="M55 897l78 -53q6 55 21.5 132t35.5 144q53 201 136 201q31 0 48 -34t17 -93q0 -39 -8 -97.5t-25 -152.5q-29 -154 -55 -289q-18 -92 -38.5 -183t-40 -174t-38 -153.5t-32.5 -124.5l-7 -20h84l7 18l53 170q33 104 75 215t90 218.5t99 207t100 179.5q124 198 210 198h1 q63 0 64 -73q0 -18 -3 -37t-12 -56l-229 -1040h96l226 1024q6 31 11 67.5t5 55.5q0 55 -31.5 90t-81.5 35q-106 0 -229 -170q-70 -96 -150.5 -255t-164.5 -364l-9 -22l52 248q4 23 11 68.5t15 94.5q12 72 16.5 119t4.5 101q0 123 -36 191.5t-102 68.5q-41 0 -81.5 -34 t-76.5 -95.5t-63.5 -144.5t-42.5 -181z" />
<glyph unicode="O" horiz-adv-x="1224" d="M27 451q0 -106 30.5 -192.5t86 -148t134 -94t175.5 -32.5q160 0 303 86t252 245q86 127 131 267.5t45 275.5q0 106 -31 195.5t-87 152t-135 97t-175 34.5q-141 0 -272.5 -74.5t-232.5 -197.5t-162.5 -282.5t-61.5 -331.5zM141 428q0 68 10.5 141.5t30 146t47 141.5 t60.5 128q86 152 200.5 233.5t243.5 81.5q158 0 246 -106.5t88 -294.5q0 -57 -8 -122.5t-22.5 -132t-35 -130t-45.5 -117.5q-41 -86 -94 -156.5t-116.5 -119.5t-133 -76t-139.5 -27q-152 0 -242 111t-90 299z" />
<glyph unicode="P" horiz-adv-x="974" d="M68 0h96l106 498q35 158 78 269.5t109 215.5q92 141 185 223t165 82q53 0 80.5 -46t27.5 -132q0 -51 -12 -113.5t-31.5 -127t-46 -125t-57.5 -105.5q-66 -102 -148.5 -156.5t-166.5 -54.5q-51 0 -101 14l-53 -71q18 -4 31 -4h30q119 0 237 66.5t212 174t153.5 240.5 t59.5 268q0 104 -48 167t-126 63q-59 0 -129 -41t-138.5 -113t-133 -168t-111.5 -207q6 41 12 102.5t12.5 125t9.5 120t3 90.5v27l-111 -49q2 -18 2 -33v-22q0 -129 -18.5 -286t-52.5 -314z" />
<glyph unicode="Q" horiz-adv-x="1224" d="M27 451q0 -104 29.5 -190.5t85 -148t133 -95t174.5 -33.5q47 0 95 8t95 24h6l29 -20l28 -21q119 -84 192 -121.5t128 -41.5l74 75q-39 2 -76 9.5t-77 25t-87 44t-108 65.5l-15 10l-14 8q98 51 183 138t147.5 196t98.5 230.5t36 242.5q0 109 -31 198t-87 151.5t-135 97 t-175 34.5q-141 0 -272.5 -74.5t-232.5 -197.5t-162.5 -282.5t-61.5 -331.5zM141 428q0 68 10.5 141.5t30 146t47 141.5t60.5 128q86 152 200.5 233.5t243.5 81.5q158 0 246 -106.5t88 -296.5q0 -55 -8 -120.5t-22.5 -132t-35 -131t-45.5 -116.5q-96 -211 -278 -321 q-4 2 -5 3l-1 1l-8 4q-117 78 -201 78q-95 -1 -152 -103q-80 47 -125 143.5t-45 225.5zM332 49q14 31 40.5 48.5t61.5 17.5q78 0 176 -72q-66 -25 -133 -25q-84 0 -145 31z" />
<glyph unicode="R" horiz-adv-x="952" d="M68 0h94l104 487q16 82 34.5 150t40 126t47.5 111.5t56 106.5q84 141 174.5 219t167.5 78q55 0 86 -42t31 -116q0 -53 -13 -112.5t-38 -119t-57.5 -114.5t-71.5 -98q-84 -94 -187.5 -148.5t-197.5 -54.5h-19q18 -53 59.5 -120.5t94.5 -137.5t115.5 -133.5t124.5 -110.5 l73 70q-104 82 -195 187.5t-157 222.5q115 33 218.5 104.5t182 164.5t126 200.5t47.5 212.5q0 98 -47.5 154t-124.5 56q-86 0 -182.5 -72.5t-188.5 -207.5q-43 -61 -80 -130t-59 -128l4 26q6 49 10 84t7 66t5 62.5t4 72.5q6 94 6 148v18l-110 -51l2 -23v-57 q0 -121 -17.5 -269.5t-50.5 -306.5z" />
<glyph unicode="S" horiz-adv-x="970" d="M-27 27q102 -51 279 -52q268 0 422 144q66 59 100.5 129.5t34.5 140.5q0 86 -55 158q-12 18 -26.5 32.5t-35 31t-48.5 36t-69 45.5q-74 49 -121.5 85t-75.5 64.5t-39 53.5t-11 53q0 135 176 246q82 53 171 83t165 30q61 0 94 -22.5t33 -63.5q0 -59 -60.5 -136 t-169.5 -149l78 -45q111 74 173.5 158t62.5 159q0 61 -51.5 96t-143.5 35q-96 0 -205.5 -38.5t-201.5 -104.5q-205 -143 -205 -301q0 -47 17.5 -82t55.5 -70q14 -12 27.5 -22t35 -24.5t55.5 -38t91 -60.5q61 -41 101.5 -75t65 -65.5t34.5 -64.5t10 -71q0 -59 -29.5 -112.5 t-81 -92.5t-121 -61.5t-149.5 -22.5q-84 0 -162.5 22.5t-164.5 71.5z" />
<glyph unicode="T" horiz-adv-x="1075" d="M-68 -39q27 -4 48.5 -5t50.5 -1q186 0 326.5 61.5t248 205t191.5 380t161 586.5l3 14l4 15l6 -3q59 -8 111.5 -16t93.5 -16l18 -2l45 90l-18 2q-63 10 -143.5 20.5t-161 17.5t-156.5 12t-129 5q-123 0 -222.5 -16.5t-162.5 -46.5q-74 -35 -115 -86.5t-41 -110.5 q0 -92 86 -152.5t230 -68.5l69 69q-354 23 -354 162q0 31 19.5 60.5t52.5 52.5q47 29 120.5 44t182.5 15q100 0 215.5 -8t220.5 -20l20 -4h6l-106 -48q-10 -66 -26.5 -139.5t-36 -150t-41 -153.5t-46.5 -146q-35 -109 -60.5 -171.5t-51.5 -111.5q-158 -285 -416 -285 q-51 0 -104.5 9.5t-100.5 29.5z" />
<glyph unicode="U" horiz-adv-x="1042" d="M61 889l78 -53q27 180 82 335q23 66 52.5 101t64.5 35q57 0 57 -105q0 -29 -4 -64.5t-14 -82.5l-25 -115l-162 -702q-12 -53 -17 -82t-5 -50q0 -59 30.5 -92.5t82.5 -33.5q158 0 350 352q25 45 52.5 100t55 113.5t52 115t45.5 103.5l36 92l5.5 11t9.5 22l-92 -365 q-33 -129 -56.5 -249.5t-42.5 -249.5l-2 -25h94q6 49 15.5 107.5t21 117t22.5 115.5t23 106l197 871l-86 -35q-12 -53 -27.5 -103.5t-44.5 -131.5q-47 -143 -95 -260t-105 -236q-127 -262 -219.5 -385t-163.5 -123q-29 0 -45.5 20.5t-16.5 53.5q0 27 12 82l11 45l123 536 q14 61 23 108.5t15.5 84.5t8.5 68.5t2 62.5q0 109 -34 169t-95 60q-43 0 -85 -32.5t-77 -91t-62.5 -140.5t-44.5 -180z" />
<glyph unicode="V" horiz-adv-x="1087" d="M55 889l74 -53q12 78 31.5 160.5t44.5 150.5q31 90 58.5 127t66.5 37q61 0 61 -113q0 -16 -1 -40.5t-5 -70.5l-53 -919q-2 -16 -2 -33v-31q0 -68 21.5 -96t70.5 -28q37 0 73.5 19t82.5 62q45 43 104 121t117 168q307 473 385 955l-113 -50q-6 -129 -38 -264t-85 -270 t-125.5 -265t-163.5 -245q-119 -154 -190 -154q-45 0 -45 68q0 4 1 21.5t1 33.5l47 824q2 29 3 56t1 50q0 106 -41 168.5t-110 62.5q-90 0 -168 -139q-35 -66 -61.5 -146.5t-41.5 -166.5z" />
<glyph unicode="W" horiz-adv-x="1552" d="M55 883l76 -49q10 78 27.5 160.5t38.5 148.5q27 90 54.5 128t67.5 38q63 0 64 -127q0 -8 -1 -35t-3 -55l-35 -938q-2 -10 -2 -31q0 -61 6 -86q6 -29 25.5 -45.5t48.5 -16.5q53 0 106 66q98 113 199 293q80 145 134 280.5t93 286.5l-2 -33q-4 -49 -8 -123.5t-8 -160.5 q-2 -47 -4 -85t-3 -72t-1 -67v-67q-2 -31 -2 -72v-55q0 -109 17.5 -149t64.5 -40q27 0 54.5 16.5t61.5 55.5q59 61 129 175t136 251q217 457 219 832l-90 -39q0 -29 1 -50.5t1 -33.5q0 -123 -22.5 -253t-65.5 -259t-104.5 -252t-137.5 -232q-49 -72 -80 -100.5t-55 -28.5 q-23 0 -30 28t-7 110v116q0 72 4 156q4 143 9 257t16 216l30 315l4 23l-98 -41l-4 -25q-10 -80 -21.5 -145t-24.5 -124.5t-29.5 -114t-37.5 -111.5q-47 -131 -113.5 -265.5t-134.5 -238.5q-55 -84 -88.5 -119t-58.5 -35q-20 0 -28.5 19.5t-8.5 66.5q0 10 1 17.5t1 17.5 l31 811q2 23 3 40.5t1 35.5q0 270 -154 270q-92 0 -159.5 -116.5t-102.5 -339.5z" />
<glyph unicode="X" horiz-adv-x="1071" d="M-68 -20q125 12 267 129q43 35 79.5 72.5t74.5 86.5t80 112.5t91 147.5l39 66l2 -6q14 -68 28.5 -122t30 -100.5t33 -88t37.5 -82.5q37 -74 73 -126.5t81 -95.5l76 66q-94 90 -163 233.5t-118 358.5l-8 33l-8 34l32 56l35 53q39 63 72 113.5t60.5 89.5t52 68.5t47.5 51.5 q51 47 100 72t96 25q4 0 10.5 -1t16.5 -1l25 114q-78 -2 -161 -58t-161 -161q-20 -29 -38.5 -55.5t-39 -60t-48.5 -78.5t-67 -111l-22 -35l-21 -37l-8 41l-10 41q-78 348 -205 490l-76 -82q68 -61 125.5 -203.5t110.5 -386.5v-6l-2 -4l-88 -141q-61 -98 -124 -171t-124 -120 q-57 -43 -122.5 -69t-119.5 -26h-16z" />
<glyph unicode="Y" horiz-adv-x="1040" d="M41 -18q25 -6 50.5 -8.5t60.5 -2.5q205 0 352 79t258 245q45 68 91 172t89 233t81 276.5t67 303.5l6 31l-113 -51q-27 -180 -98.5 -347.5t-177.5 -298.5q-57 -70 -96.5 -99.5t-75.5 -29.5q-76 0 -76 125v25q0 16 2 33l12 336q0 16 1 31.5t1 27.5q0 139 -40 211t-113 72 q-88 0 -164 -129q-16 -31 -32.5 -70t-30 -84t-24 -90t-16.5 -88l76 -49l4 24q29 217 78 336t109 119q63 0 63 -119v-33l-18 -514v-43q0 -84 12 -121q29 -73 102 -73h2q47 0 96.5 33.5t112.5 111.5q33 39 59.5 73t50 68.5t44 72.5t45.5 87l14 27l-8 -29q-16 -61 -28.5 -105 t-21.5 -77t-18.5 -58.5t-17.5 -52.5q-31 -92 -63.5 -163.5t-73.5 -133.5q-78 -127 -174.5 -184t-225.5 -57q-53 0 -101 8t-97 26z" />
<glyph unicode="Z" horiz-adv-x="1169" d="M-41 94q0 -45 36 -74.5t89 -29.5q70 0 141.5 33.5t173.5 111.5l19 -6l117 -41l155 -55q160 -55 277 -56q6 0 20 1.5t31 3.5l53 96q-27 -2 -42 -3t-34 -1q-41 0 -86 6t-96 16q-18 4 -32.5 8.5t-36 10.5t-54.5 17t-88 30q-25 8 -50.5 15t-51.5 18l-25 6l17 16 q137 127 251.5 262t214.5 289q37 57 74 121.5t70 130t61.5 127t46.5 115.5l-12 4q-137 39 -288.5 60.5t-291.5 21.5q-113 0 -191.5 -19.5t-137.5 -62.5q-96 -68 -96 -166q0 -90 78.5 -148.5t222.5 -81.5l75 72q-182 23 -265 64t-83 108q0 31 19.5 62.5t54.5 54.5 q74 49 240 49q102 0 254.5 -22.5t322.5 -61.5l18 -4q-49 -127 -118.5 -256t-157.5 -252t-190.5 -239.5t-217.5 -219.5l-14 -12q-119 29 -219 29q-117 0 -185.5 -40t-68.5 -108zM6 90q0 41 39 66.5t102 25.5q88 0 203 -35l-18 -14q-82 -59 -137.5 -82.5t-106.5 -23.5 q-35 0 -58.5 17t-23.5 46z" />
<glyph unicode="[" horiz-adv-x="681" d="M137 -158h178l7 31h-35q-35 0 -48.5 7t-13.5 28q0 10 4 31l7 34l274 1338l8 35q8 45 23.5 56t64.5 11h31l6 31h-176z" />
<glyph unicode="\" horiz-adv-x="774" d="M240 1442l309 -1600l29 6l-312 1598z" />
<glyph unicode="]" horiz-adv-x="681" d="M29 -158h176l330 1602h-179l-6 -31h35q37 0 49 -6t12 -29q0 -10 -4 -30l-6 -35l-274 -1336l-8 -36q-8 -45 -23.5 -56.5t-64.5 -11.5h-31z" />
<glyph unicode="^" d="M68 0h684v1366h-684v-1366zM82 14v1338h655v-1338h-655z" />
<glyph unicode="_" horiz-adv-x="1024" d="M0 -272v-45h1024v45h-1024z" />
<glyph unicode="`" horiz-adv-x="391" d="M137 815l99 -156l20 7l-59 168z" />
<glyph unicode="a" horiz-adv-x="665" d="M-29 139q0 -72 34 -111.5t91 -39.5q94 0 199 131q35 45 57.5 82t40.5 84l-6 -37q-8 -35 -12 -58.5t-7 -40t-4.5 -27.5t-1.5 -20q0 -45 24 -78.5t54 -33.5q23 0 49.5 23.5t81.5 86.5l13 13l-15 16q-37 -41 -58.5 -56.5t-37.5 -15.5q-20 0 -32.5 20.5t-12.5 53.5q0 14 4 42 t10 52l95 367l-95 -39l-10 -39q-39 57 -119 57q-57 0 -117.5 -39.5t-110.5 -103t-82 -139.5t-32 -150zM57 152q0 45 21.5 112.5t54.5 126.5q41 72 89 112t93 40q37 0 66 -21.5t41 -58.5l-8 -35q-10 -41 -19.5 -71.5t-19.5 -56.5t-21.5 -47.5t-25.5 -45.5q-47 -78 -98.5 -121 t-96.5 -43q-76 0 -76 109z" />
<glyph unicode="b" horiz-adv-x="636" d="M-31 -4l70 41q43 -29 74.5 -41t72.5 -12q121 0 215 118q57 70 92 160t35 166q0 66 -33.5 108t-86.5 42q-174 0 -353 -402l289 1233l-106 -51zM55 102q37 94 79 173t84 136.5t82 88t75 30.5q65 0 65 -91q0 -40 -15 -106.5t-38 -121.5q-39 -98 -91 -150.5t-112 -52.5 q-41 0 -73.5 23.5t-55.5 70.5z" />
<glyph unicode="c" horiz-adv-x="489" d="M-27 178q0 -86 48.5 -139t125.5 -53q68 0 126.5 38t119.5 126l-14 12q-53 -68 -97 -96.5t-94 -28.5q-55 0 -91 46t-36 120q0 61 19.5 123.5t50.5 112.5t70 82t75 32q23 0 38.5 -16.5t15.5 -42.5q0 -37 -18.5 -66t-47.5 -43q12 -12 27 -12q35 0 64.5 34.5t29.5 75.5 t-27.5 68t-74.5 27q-53 0 -108.5 -36t-100.5 -93.5t-73 -129t-28 -141.5z" />
<glyph unicode="d" horiz-adv-x="651" d="M-27 141q0 -72 33 -112.5t90 -40.5q96 0 197 131q53 70 82 135l-13 -57q-10 -43 -11 -60.5t-1 -34.5q0 -47 21.5 -79.5t54.5 -32.5q16 0 27.5 8t33.5 31l35 32q8 12 37 43l8 9l-14 16l-6 -6l-29 -29q-35 -39 -61 -39q-20 0 -31.5 19.5t-11.5 54.5q0 33 20 127l266 1153 l-108 -51l-164 -817q-48 34 -106 34h-3q-61 0 -122.5 -38.5t-111.5 -101t-81 -140.5t-31 -154zM59 143q0 53 19.5 120t54.5 126q43 78 92 120t97 42q33 0 60.5 -17t37.5 -42l-10 -52q-4 -23 -13.5 -56.5t-19.5 -64.5q-12 -35 -22.5 -59t-30.5 -55q-47 -80 -96.5 -124 t-90.5 -44q-37 0 -57.5 28.5t-20.5 77.5z" />
<glyph unicode="e" horiz-adv-x="495" d="M-27 182q0 -90 48.5 -144t130.5 -54q68 0 126 36.5t121 120.5l-16 15q-53 -66 -96 -94.5t-90 -28.5q-59 0 -97.5 43t-38.5 112v19q145 53 229.5 130t84.5 155q0 39 -26.5 62.5t-67.5 23.5q-53 0 -107.5 -36t-99.5 -93.5t-73 -128t-28 -138.5zM61 231q6 59 28 117 t51.5 104t64.5 73.5t67 27.5q43 0 43 -47q0 -35 -23.5 -81t-64.5 -87q-31 -31 -69 -55.5t-97 -51.5z" />
<glyph unicode="f" horiz-adv-x="327" d="M-340 -379q20 -10 36.5 -13t45.5 -3q92 0 174 88q23 23 39 47t29.5 55t26 73t26.5 99l137 565h164l6 35h-162l154 635q23 86 51.5 122t75.5 36q63 0 102 -57l37 92q-39 14 -80 14q-127 0 -215 -117q-35 -47 -60.5 -111.5t-47.5 -172.5l-95 -441h-98l-6 -35h96l-129 -604 q-12 -53 -28.5 -109.5t-28.5 -80.5q-39 -80 -111 -80q-27 0 -47 8t-45 27z" />
<glyph unicode="g" horiz-adv-x="620" d="M-88 -354q53 -41 123 -41q78 0 146.5 39t115.5 110q12 20 22.5 40t19.5 44.5t18.5 59t21.5 84.5l153 610l-92 -39l-8 -35q-49 53 -119 53q-59 0 -119.5 -41t-109.5 -103t-81 -139t-32 -151q0 -68 34 -109.5t89 -41.5q68 0 137.5 63.5t135.5 186.5l-76 -330 q-16 -70 -27.5 -104.5t-27.5 -63.5q-23 -39 -63 -63.5t-81 -24.5q-35 0 -65.5 14t-65.5 47zM57 145q0 37 10.5 80t28 87t40 84t48.5 71q68 76 133 76q62 0 103 -76l-10 -45q-16 -66 -37 -117t-49 -98q-47 -82 -95.5 -126t-89.5 -44q-39 0 -60.5 29.5t-21.5 78.5z" />
<glyph unicode="h" horiz-adv-x="638" d="M-31 -10l68 22q18 90 55 180.5t83 163t94 118.5t87 46q18 0 29.5 -12t11.5 -31q0 -10 -2 -29.5t-6 -41.5l-39 -211q-6 -35 -9 -57.5t-3 -39.5q0 -45 21.5 -76.5t52.5 -31.5q12 0 23 5t26.5 17.5t36 34t49.5 55.5l8 11l-14 16q-70 -76 -101 -76q-16 0 -27.5 20.5 t-11.5 51.5q0 29 15 92l10 39l31 123l10 41q10 45 10 65q0 41 -22.5 65.5t-61.5 24.5q-72 0 -155 -92q-43 -47 -81 -107.5t-67 -123.5l-22 -53l-1 -2t-4 -7l277 1219l-104 -51z" />
<glyph unicode="i" horiz-adv-x="294" d="M0 98q0 -45 21.5 -76.5t52.5 -31.5q12 0 23.5 5t26.5 17.5t35.5 34t49.5 55.5l8 11l-14 16q-70 -76 -101 -76q-16 0 -27.5 20.5t-11.5 53.5q0 20 6.5 58t14.5 71l90 330l-98 -41l-64 -350q-8 -37 -10 -58.5t-2 -38.5zM143 920q0 -25 17.5 -42.5t42.5 -17.5q23 0 40 17.5 t17 42.5q0 23 -17 40t-40 17q-25 0 -42.5 -17.5t-17.5 -39.5z" />
<glyph unicode="j" horiz-adv-x="272" d="M-338 -381q16 -6 30.5 -9t37.5 -3q59 0 114.5 28.5t92.5 75.5q14 18 23 35.5t18.5 39t17.5 52.5t18 76l158 672l-96 -41l-129 -684q-8 -47 -14.5 -72t-14.5 -43q-18 -41 -51 -64.5t-72 -23.5q-43 0 -86 31zM143 920q0 -25 16.5 -42.5t41.5 -17.5t42 17.5t17 42.5 q0 23 -17 40t-42 17t-41.5 -17.5t-16.5 -39.5z" />
<glyph unicode="k" horiz-adv-x="593" d="M-31 -10l66 22q25 156 119 314q23 -55 48 -111.5t54 -108.5q37 -66 64.5 -92t58.5 -26q23 0 57.5 27.5t87.5 93.5l-12 14l-8 -8q-35 -35 -54.5 -48.5t-41.5 -13.5q-23 0 -48.5 31t-66.5 111q-20 41 -45 98t-41 98q53 63 106.5 91t114.5 28q10 0 19.5 -1t25.5 -5l16 82 q-63 -4 -111 -22.5t-97 -59.5q-59 -47 -118 -125t-89 -154l272 1184l-108 -51z" />
<glyph unicode="l" horiz-adv-x="294" d="M0 98q0 -45 21.5 -76.5t52.5 -31.5q12 0 23.5 5t26.5 17.5t35.5 34t49.5 55.5l8 11l-14 16q-70 -76 -101 -76q-16 0 -27.5 20.5t-11.5 51.5q0 33 13 92l8 39l264 1153l-106 -51l-230 -1163q-6 -27 -9 -54.5t-3 -42.5z" />
<glyph unicode="m" horiz-adv-x="968" d="M-16 -10l61 22q14 55 29.5 99.5t32 84.5t37 76.5t44.5 77.5q51 82 97.5 128t81.5 46q36 0 36 -43q0 -16 -8 -49q-4 -25 -6 -35l-80 -407l66 22q29 102 60.5 178t82.5 160q53 92 95 133t77 41q39 0 39 -39q0 -10 -1 -21t-3 -28l-8 -35l-37 -206q-6 -39 -9 -59.5t-3 -37.5 q0 -45 22.5 -76.5t52.5 -31.5q12 0 23.5 5t26 17.5t35 34t49.5 55.5l10 11l-17 16q-68 -76 -98 -76q-18 0 -29.5 20.5t-11.5 51.5q0 16 3 36.5t14 55.5l8 39l30 123q20 82 21 115q0 41 -20.5 63.5t-59.5 22.5q-66 0 -134.5 -78t-162.5 -262l33 149q10 41 13 62.5t3 40.5 q0 83 -74 83h-2q-35 0 -73.5 -25.5t-79.5 -72.5t-81 -111.5t-73 -142.5l86 363l-96 -41z" />
<glyph unicode="n" horiz-adv-x="663" d="M-16 -10l65 22l10 27q18 57 35 103t35 84t38.5 73t45.5 72q99 149 169 149h1q18 0 29.5 -12t11.5 -31q0 -10 -2 -29.5t-6 -41.5l-39 -211q-8 -35 -10 -57.5t-2 -39.5q0 -45 21.5 -76.5t51.5 -31.5q23 0 49.5 21.5t85.5 90.5l9 11l-15 16q-70 -76 -100 -76 q-16 0 -27.5 20.5t-11.5 51.5q0 29 14 92l11 39l28 123l13 41q10 45 10 65q0 41 -22.5 65.5t-61.5 24.5q-76 0 -158 -91t-164 -265l86 367l-96 -41z" />
<glyph unicode="o" horiz-adv-x="600" d="M-27 193q0 -96 51.5 -153.5t137.5 -57.5q61 0 120.5 33.5t105.5 89t75 125t29 143.5q0 90 -52.5 145t-136.5 55q-61 0 -119.5 -33.5t-105.5 -87t-76 -121.5t-29 -138zM61 162q0 66 24 144.5t60 137.5q33 51 71 79t79 28q47 0 76.5 -39t29.5 -100q0 -66 -20.5 -145 t-52.5 -138q-66 -123 -154 -123q-53 0 -83 41t-30 115z" />
<glyph unicode="p" horiz-adv-x="645" d="M-96 -397h55l102 417q52 -40 123 -40h4q125 0 228 124q57 68 89 150t32 160t-35 122t-96 44q-78 0 -143.5 -67t-139.5 -214l65 287l-96 -41zM76 88l8 27q10 37 18.5 61.5t14.5 43t12 33.5t14 32q45 96 107 174q31 37 64.5 58.5t62.5 21.5q35 0 55.5 -30t20.5 -83 q0 -94 -66 -242q-84 -180 -192 -180q-78 0 -119 84z" />
<glyph unicode="q" horiz-adv-x="616" d="M-27 141q0 -72 36 -114.5t95 -42.5q80 0 166 100q33 37 57.5 75t45.5 79l-142 -635h56l248 989l-93 -39l-8 -35q-47 49 -119 49q-125 0 -235 -147q-51 -66 -79 -139.5t-28 -139.5zM61 135q0 61 26 138t69 149q35 53 80 85t86 32q71 0 102 -72l-8 -37q-16 -74 -47 -145.5 t-70 -128t-80 -90t-78 -33.5q-39 0 -59.5 27.5t-20.5 74.5z" />
<glyph unicode="r" horiz-adv-x="442" d="M-27 285l17 -17q41 47 73.5 102.5t47.5 100.5q12 -4 20 -5t19 -1q41 0 69.5 12t63.5 43l-11 -14q-41 -59 -76.5 -119.5t-60.5 -110.5q-31 -61 -44 -105t-13 -83q0 -98 84 -98q43 0 98 43q31 23 51.5 41t36.5 35l-16 18q-94 -88 -133 -88q-18 0 -29.5 16.5t-11.5 38.5 q0 31 13 82t35.5 111.5t52.5 127t65 130.5l6 12h-47q-43 -35 -103 -35q-25 0 -49 8q6 23 8 37.5t2 30.5q0 45 -18.5 72.5t-48.5 27.5q-29 0 -47.5 -25.5t-18.5 -64.5q0 -86 80 -129q-14 -43 -44 -95t-71 -99zM49 623q0 33 25 32q16 0 27.5 -20.5t11.5 -54.5v-19q0 -8 -2 -22 q-61 35 -62 84z" />
<glyph unicode="s" horiz-adv-x="436" d="M-82 63q60 -81 148 -81h2q43 0 82.5 16t69.5 43t47.5 62.5t17.5 76.5q0 35 -19.5 68t-66.5 67l-58 47q-53 41 -53 84q0 35 31 60.5t71 25.5q47 0 76 -25.5t37 -72.5q39 16 39 62q0 35 -30.5 57t-75.5 22q-39 0 -75 -14t-63.5 -38.5t-44 -56.5t-16.5 -67q0 -37 19.5 -63.5 t80.5 -75.5t80 -72.5t19 -54.5q0 -43 -36 -74.5t-87 -31.5q-92 0 -140 102z" />
<glyph unicode="t" horiz-adv-x="366" d="M-14 532h96l-66 -319q-14 -66 -14 -109q0 -53 28.5 -83.5t75.5 -30.5q39 0 79 29.5t98 101.5l-15 14l-12 -12q-47 -49 -68.5 -64.5t-48.5 -15.5q-29 0 -46 22.5t-17 57.5q0 23 12 78l76 331h162l8 35h-162l70 310l-97 -39l-55 -271h-96z" />
<glyph unicode="u" horiz-adv-x="616" d="M0 96q0 -49 29.5 -77.5t83.5 -28.5q102 0 206 137q-2 -10 -2 -16v-13q0 -45 21.5 -76.5t52.5 -31.5q23 0 49.5 21.5t85.5 90.5l9 11l-15 16q-70 -76 -100 -76q-18 0 -28.5 20.5t-10.5 53.5q0 20 5 58t15 71l88 330l-96 -41l-63 -350q-2 -6 -2 -11q0 -2 -2 -6l-4 -6 q-90 -139 -177 -139q-37 0 -58 21.5t-21 56.5q0 18 3 37.5t11 50.5l96 387l-96 -41l-70 -355q-4 -29 -7 -51t-3 -43z" />
<glyph unicode="v" horiz-adv-x="522" d="M0 545l57 -467q6 -53 17.5 -71.5t36.5 -18.5q16 0 30.5 9t38.5 32q31 29 52.5 53t50.5 65q84 115 120.5 197t36.5 154q0 66 -34 112l-76 -69q25 -25 35 -49.5t10 -61.5q0 -55 -20.5 -109.5t-65.5 -119.5q-94 -141 -131 -142q-10 0 -17.5 7.5t-12.5 28t-10 58t-12 99.5 q-8 86 -11 157.5t-5 149.5v27z" />
<glyph unicode="w" horiz-adv-x="798" d="M0 547l59 -473q8 -51 17.5 -68.5t32.5 -17.5q45 0 120 102q25 35 52.5 81t48.5 85l22 -178q6 -51 16.5 -70.5t32.5 -19.5q31 0 74 49q25 29 44.5 55.5t41.5 54.5q82 117 119 202t37 157q0 63 -35 104l-76 -69q47 -33 47 -107q0 -47 -19.5 -100t-62.5 -123 q-88 -143 -125 -143q-18 0 -24 32q-4 16 -10 61.5t-11 92.5q-4 29 -5 53.5t-3 56t-4 78.5t-4 121v25l-90 -41l29 -242q-23 -49 -48.5 -93t-48 -77t-42 -52.5t-31.5 -19.5q-8 0 -14.5 6.5t-10.5 26t-9 57t-11 101.5q-10 104 -14.5 172t-4.5 135v10v15z" />
<glyph unicode="x" horiz-adv-x="487" d="M-94 0h67q16 16 29.5 31.5t46.5 56.5l62 76q18 23 32.5 40t22.5 27l4 5l109 -236h92l-144 301l4 4q12 14 37 41t66 72q20 23 33.5 36t26 27.5t27.5 31.5t44 46l10 10h-72l-10 -12l-65 -84q-14 -16 -34 -40.5t-46 -53.5l-19 -23l-18 -20l-117 248l-71 -29l131 -285 l-39 -45q-31 -35 -55.5 -61.5t-47 -50t-44 -47t-48.5 -50.5z" />
<glyph unicode="y" horiz-adv-x="598" d="M-117 -354q51 -41 129 -41q143 0 240 127q16 20 29.5 42.5t25.5 53.5t23.5 73t25.5 97l146 588l-94 -41l-86 -383q-57 -68 -100.5 -98.5t-80.5 -30.5q-33 0 -54 20.5t-21 55.5q0 14 3 29.5t9 43.5l96 404l-96 -41l-68 -361q-10 -47 -10 -78q0 -55 29.5 -86.5t83.5 -31.5 q88 0 198 129l-47 -207q-31 -139 -77 -199.5t-124 -60.5q-76 0 -131 61z" />
<glyph unicode="z" horiz-adv-x="473" d="M-68 25l13 -27h395l10 80q-23 -2 -35 -2h-26q-25 -2 -64 -3t-69 -1q-43 0 -70 1t-55 5q20 29 39.5 55.5t46 60t64.5 81t95 114.5l113 137l17 19l-9 22h-327l-15 -71h258q-18 -27 -34.5 -49.5t-51.5 -65.5l-92 -115q-14 -18 -38.5 -48t-52.5 -62.5t-54.5 -63.5t-44.5 -51z " />
<glyph unicode="{" d="M68 0h684v1366h-684v-1366zM82 14v1338h655v-1338h-655z" />
<glyph unicode="|" d="M68 0h684v1366h-684v-1366zM82 14v1338h655v-1338h-655z" />
<glyph unicode="}" d="M68 0h684v1366h-684v-1366zM82 14v1338h655v-1338h-655z" />
<glyph unicode="~" d="M68 0h684v1366h-684v-1366zM82 14v1338h655v-1338h-655z" />
<glyph unicode="&#xa1;" horiz-adv-x="540" d="M61 -12l134 61l147 973l-27 -12zM274 1186q0 -35 23.5 -58.5t58.5 -23.5t58.5 23.5t23.5 58.5t-23.5 57.5t-58.5 22.5t-58.5 -22.5t-23.5 -57.5z" />
<glyph unicode="&#xa2;" horiz-adv-x="520" d="M20 322q0 -143 109 -197l4 -2l-27 -123h25l23 117q12 -4 18 -5t16 -1l-22 -111h24l23 109q53 4 101 35.5t85 91.5l-16 12q-29 -41 -70 -65.5t-77 -24.5h-13l107 526q55 -12 55 -72q0 -35 -25 -67q29 0 47.5 19.5t18.5 53.5q0 37 -24.5 63t-65.5 30l20 96h-24l-21 -94 q-16 0 -35 -6l21 100h-25l-22 -109q-47 -18 -88 -58t-73 -92t-50.5 -110.5t-18.5 -115.5zM100 334q0 49 11.5 99t31 95t46 80.5t55.5 53.5l-97 -467q-47 45 -47 139zM168 178l102 498q19 8 35 8l-106 -520q-10 4 -15.5 6t-15.5 8z" />
<glyph unicode="&#xa3;" horiz-adv-x="606" d="M-96 10l8 -16q6 2 12 2q4 0 6 2l37 6q10 4 30.5 5t45.5 1t49.5 -2t77.5 -8q47 -4 79 -6t56 -2q61 0 103 8l63 182h-20q-41 -100 -150 -100h-33q-14 0 -30 2l-76 6q-10 0 -21.5 1t-21.5 1q-20 0 -39 -2t-49 -6q57 57 94 115.5t51 117.5h203l6 23h-203v6q2 12 3 17.5 t1 11.5h205l4 22h-209q0 16 -1 35t-5 55q-6 49 -6 82q0 104 44 164t120 60q47 0 74.5 -32t27.5 -83q0 -18 -4 -31.5t-14 -30.5q8 -2 16 -2q29 0 49.5 25t20.5 59q0 53 -41 87t-102 34q-88 0 -162 -67q-104 -96 -105 -236q0 -16 1 -38.5t5 -69.5l2 -11h-88l-6 -22h97v-8v-23 v-4h-103l-4 -23h107q-6 -92 -55.5 -164.5t-149.5 -142.5z" />
<glyph unicode="&#xa4;" d="M68 0h684v1366h-684v-1366zM82 14v1338h655v-1338h-655z" />
<glyph unicode="&#xa5;" horiz-adv-x="653" d="M41 313h166l-66 -313h78l64 313h163l5 27h-162l6 33h164l4 22h-150l326 410h-74q-16 -31 -44.5 -77t-65.5 -99.5t-81 -111.5t-87 -114l-127 414l-99 -29q23 -33 40.5 -68.5t35.5 -92.5l74 -232h-154l-4 -22h164l-6 -33h-164z" />
<glyph unicode="&#xa7;" d="M68 0h684v1366h-684v-1366zM82 14v1338h655v-1338h-655z" />
<glyph unicode="&#xa8;" horiz-adv-x="522" d="M135 745q0 -18 14.5 -32.5t34.5 -14.5q18 0 31.5 14.5t13.5 32.5q0 20 -13.5 34t-31.5 14q-20 0 -34.5 -13.5t-14.5 -34.5zM293 745q0 -18 13 -32.5t34 -14.5q18 0 32.5 14.5t14.5 32.5q0 20 -14.5 34t-32.5 14q-20 0 -33.5 -13.5t-13.5 -34.5z" />
<glyph unicode="&#xa9;" d="M68 0h684v1366h-684v-1366zM82 14v1338h655v-1338h-655z" />
<glyph unicode="&#xaa;" d="M68 0h684v1366h-684v-1366zM82 14v1338h655v-1338h-655z" />
<glyph unicode="&#xab;" horiz-adv-x="538" d="M20 305q37 -41 66 -95t43 -110h16l-32 205l125 203h-19q-41 -53 -93 -105.5t-106 -97.5zM164 305q39 -41 66.5 -95t41.5 -110h19l-33 205l123 203h-19q-41 -53 -93 -105.5t-105 -97.5z" />
<glyph unicode="&#xac;" d="M68 0h684v1366h-684v-1366zM82 14v1338h655v-1338h-655z" />
<glyph unicode="&#xad;" horiz-adv-x="485" d="M47 283h246l8 45h-244z" />
<glyph unicode="&#xae;" d="M68 0h684v1366h-684v-1366zM82 14v1338h655v-1338h-655z" />
<glyph unicode="&#xaf;" d="M68 0h684v1366h-684v-1366zM82 14v1338h655v-1338h-655z" />
<glyph unicode="&#xb0;" d="M68 0h684v1366h-684v-1366zM82 14v1338h655v-1338h-655z" />
<glyph unicode="&#xb1;" d="M68 0h684v1366h-684v-1366zM82 14v1338h655v-1338h-655z" />
<glyph unicode="&#xb4;" horiz-adv-x="501" d="M137 668l21 -9l209 156l-66 19z" />
<glyph unicode="&#xb5;" d="M68 0h684v1366h-684v-1366zM82 14v1338h655v-1338h-655z" />
<glyph unicode="&#xb6;" d="M68 0h684v1366h-684v-1366zM82 14v1338h655v-1338h-655z" />
<glyph unicode="&#xb7;" horiz-adv-x="333" d="M41 406q0 -70 70 -70q35 0 60.5 28.5t25.5 69.5q0 31 -19.5 51.5t-50.5 20.5q-35 0 -60.5 -30t-25.5 -70z" />
<glyph unicode="&#xb8;" d="M68 0h684v1366h-684v-1366zM82 14v1338h655v-1338h-655z" />
<glyph unicode="&#xba;" d="M68 0h684v1366h-684v-1366zM82 14v1338h655v-1338h-655z" />
<glyph unicode="&#xbb;" horiz-adv-x="538" d="M20 100h19q47 57 96 109.5t103 95.5q-39 41 -67 94.5t-42 108.5h-16l30 -203zM164 100h18q94 117 199 205q-39 41 -65.5 94.5t-43.5 108.5h-16l33 -203z" />
<glyph unicode="&#xbf;" horiz-adv-x="729" d="M61 158q0 -78 46.5 -124t121.5 -46q86 0 177.5 55t154.5 145l-29 103q-20 -35 -41.5 -65.5t-56.5 -65.5q-127 -137 -229 -137q-45 0 -75 30.5t-30 73.5q0 45 35 107.5t123 173.5q16 20 38.5 48.5t37.5 45.5q66 82 99.5 127t51.5 73q33 51 47.5 94.5t14.5 84.5 q0 66 -40 106.5t-104 40.5h-10l-28 -67q29 10 43 14t30 4q72 0 72 -66q0 -18 -6 -37.5t-21.5 -46t-44 -63.5t-73.5 -92l-89 -109q-113 -135 -164 -232t-51 -175zM424 1182q0 -35 22.5 -57.5t57.5 -22.5t58.5 22.5t23.5 57.5t-23.5 58.5t-58.5 23.5t-57.5 -23.5t-22.5 -58.5z " />
<glyph unicode="&#xc0;" d="M68 0h684v1366h-684v-1366zM82 14v1338h655v-1338h-655z" />
<glyph unicode="&#xc1;" d="M68 0h684v1366h-684v-1366zM82 14v1338h655v-1338h-655z" />
<glyph unicode="&#xc2;" d="M68 0h684v1366h-684v-1366zM82 14v1338h655v-1338h-655z" />
<glyph unicode="&#xc3;" d="M68 0h684v1366h-684v-1366zM82 14v1338h655v-1338h-655z" />
<glyph unicode="&#xc4;" d="M68 0h684v1366h-684v-1366zM82 14v1338h655v-1338h-655z" />
<glyph unicode="&#xc5;" d="M68 0h684v1366h-684v-1366zM82 14v1338h655v-1338h-655z" />
<glyph unicode="&#xc6;" d="M68 0h684v1366h-684v-1366zM82 14v1338h655v-1338h-655z" />
<glyph unicode="&#xc7;" horiz-adv-x="987" d="M29 395q0 -176 87 -288.5t238 -129.5l-51 -94l21 -8q14 8 24 8q29 0 29 -33q0 -29 -22.5 -50t-51.5 -21q-27 0 -45 18l-10 -18q33 -23 71 -23q45 0 75 27t30 67q0 29 -15.5 45.5t-41.5 16.5q-4 0 -9.5 -1t-15.5 -3l37 67q8 -2 14 -2h10q121 0 241 60.5t239 177.5l-13 20 l-16 -12q-117 -102 -208 -145t-187 -43q-147 0 -233.5 109.5t-86.5 297.5q0 328 221 604q49 59 103.5 108.5t111 85.5t110.5 55.5t101 19.5q53 0 85 -30t32 -77q0 -49 -27.5 -100t-75.5 -97t-112.5 -84t-138.5 -59l29 -76q74 20 140 63.5t116.5 99t81 117.5t30.5 122 q0 68 -42 108.5t-113 40.5q-59 0 -127 -25.5t-137.5 -71.5t-138.5 -110.5t-128 -144.5q-113 -147 -172 -299.5t-59 -292.5z" />
<glyph unicode="&#xc8;" d="M68 0h684v1366h-684v-1366zM82 14v1338h655v-1338h-655z" />
<glyph unicode="&#xc9;" d="M68 0h684v1366h-684v-1366zM82 14v1338h655v-1338h-655z" />
<glyph unicode="&#xca;" d="M68 0h684v1366h-684v-1366zM82 14v1338h655v-1338h-655z" />
<glyph unicode="&#xcb;" d="M68 0h684v1366h-684v-1366zM82 14v1338h655v-1338h-655z" />
<glyph unicode="&#xcc;" d="M68 0h684v1366h-684v-1366zM82 14v1338h655v-1338h-655z" />
<glyph unicode="&#xcd;" d="M68 0h684v1366h-684v-1366zM82 14v1338h655v-1338h-655z" />
<glyph unicode="&#xce;" d="M68 0h684v1366h-684v-1366zM82 14v1338h655v-1338h-655z" />
<glyph unicode="&#xcf;" d="M68 0h684v1366h-684v-1366zM82 14v1338h655v-1338h-655z" />
<glyph unicode="&#xd1;" d="M68 0h684v1366h-684v-1366zM82 14v1338h655v-1338h-655z" />
<glyph unicode="&#xd2;" d="M68 0h684v1366h-684v-1366zM82 14v1338h655v-1338h-655z" />
<glyph unicode="&#xd3;" d="M68 0h684v1366h-684v-1366zM82 14v1338h655v-1338h-655z" />
<glyph unicode="&#xd4;" d="M68 0h684v1366h-684v-1366zM82 14v1338h655v-1338h-655z" />
<glyph unicode="&#xd5;" d="M68 0h684v1366h-684v-1366zM82 14v1338h655v-1338h-655z" />
<glyph unicode="&#xd6;" d="M68 0h684v1366h-684v-1366zM82 14v1338h655v-1338h-655z" />
<glyph unicode="&#xd8;" d="M68 0h684v1366h-684v-1366zM82 14v1338h655v-1338h-655z" />
<glyph unicode="&#xd9;" d="M68 0h684v1366h-684v-1366zM82 14v1338h655v-1338h-655z" />
<glyph unicode="&#xda;" d="M68 0h684v1366h-684v-1366zM82 14v1338h655v-1338h-655z" />
<glyph unicode="&#xdb;" d="M68 0h684v1366h-684v-1366zM82 14v1338h655v-1338h-655z" />
<glyph unicode="&#xdc;" d="M68 0h684v1366h-684v-1366zM82 14v1338h655v-1338h-655z" />
<glyph unicode="&#xdf;" horiz-adv-x="612" d="M-27 -12l64 20l262 1180q23 104 50.5 144t78.5 40q41 0 66.5 -39t25.5 -100q0 -86 -38 -169t-115 -175l-68 -76q-55 -66 -55 -133q0 -57 51 -117l72 -86q35 -41 54 -93t19 -108q0 -51 -15 -97t-41 -79.5t-59.5 -54t-72.5 -20.5q-78 0 -119 77l-47 -59q45 -59 129 -59 q53 0 104.5 28.5t90.5 75.5t62.5 108.5t23.5 127.5q0 86 -43 165q-8 16 -16.5 28.5t-19.5 28t-29.5 37t-45.5 52.5q-47 53 -47 90q0 25 13.5 49.5t53.5 69.5q111 125 167.5 231.5t56.5 188.5q0 66 -37 105.5t-94 39.5q-53 0 -107.5 -41t-95.5 -108q-12 -23 -22.5 -45.5 t-19.5 -51t-17.5 -67.5t-18.5 -92z" />
<glyph unicode="&#xe0;" horiz-adv-x="665" d="M-29 139q0 -72 34 -111.5t91 -39.5q94 0 199 131q35 45 57.5 82t40.5 84l-6 -37q-8 -35 -12 -58.5t-7 -40t-4.5 -27.5t-1.5 -20q0 -45 24 -78.5t54 -33.5q23 0 49.5 23.5t81.5 86.5l13 13l-15 16q-37 -41 -58.5 -56.5t-37.5 -15.5q-20 0 -32.5 20.5t-12.5 53.5q0 14 4 42 t10 52l95 367l-95 -39l-10 -39q-39 57 -119 57q-57 0 -117.5 -39.5t-110.5 -103t-82 -139.5t-32 -150zM57 152q0 45 21.5 112.5t54.5 126.5q41 72 89 112t93 40q37 0 66 -21.5t41 -58.5l-8 -35q-10 -41 -19.5 -71.5t-19.5 -56.5t-21.5 -47.5t-25.5 -45.5q-47 -78 -98.5 -121 t-96.5 -43q-76 0 -76 109zM274 815l99 -156l20 7l-59 168z" />
<glyph unicode="&#xe1;" horiz-adv-x="665" d="M-29 139q0 -72 34 -111.5t91 -39.5q94 0 199 131q35 45 57.5 82t40.5 84l-6 -37q-8 -35 -12 -58.5t-7 -40t-4.5 -27.5t-1.5 -20q0 -45 24 -78.5t54 -33.5q23 0 49.5 23.5t81.5 86.5l13 13l-15 16q-37 -41 -58.5 -56.5t-37.5 -15.5q-20 0 -32.5 20.5t-12.5 53.5q0 14 4 42 t10 52l95 367l-95 -39l-10 -39q-39 57 -119 57q-57 0 -117.5 -39.5t-110.5 -103t-82 -139.5t-32 -150zM57 152q0 45 21.5 112.5t54.5 126.5q41 72 89 112t93 40q37 0 66 -21.5t41 -58.5l-8 -35q-10 -41 -19.5 -71.5t-19.5 -56.5t-21.5 -47.5t-25.5 -45.5q-47 -78 -98.5 -121 t-96.5 -43q-76 0 -76 109zM315 668l21 -9l209 156l-66 19z" />
<glyph unicode="&#xe2;" horiz-adv-x="665" d="M-29 139q0 -72 34 -111.5t91 -39.5q94 0 199 131q35 45 57.5 82t40.5 84l-6 -37q-8 -35 -12 -58.5t-7 -40t-4.5 -27.5t-1.5 -20q0 -45 24 -78.5t54 -33.5q23 0 49.5 23.5t81.5 86.5l13 13l-15 16q-37 -41 -58.5 -56.5t-37.5 -15.5q-20 0 -32.5 20.5t-12.5 53.5q0 14 4 42 t10 52l95 367l-95 -39l-10 -39q-39 57 -119 57q-57 0 -117.5 -39.5t-110.5 -103t-82 -139.5t-32 -150zM57 152q0 45 21.5 112.5t54.5 126.5q41 72 89 112t93 40q37 0 66 -21.5t41 -58.5l-8 -35q-10 -41 -19.5 -71.5t-19.5 -56.5t-21.5 -47.5t-25.5 -45.5q-47 -78 -98.5 -121 t-96.5 -43q-76 0 -76 109zM246 705l6 -15l136 47l116 -47l13 15l-117 98z" />
<glyph unicode="&#xe3;" horiz-adv-x="665" d="M-29 139q0 -72 34 -111.5t91 -39.5q94 0 199 131q35 45 57.5 82t40.5 84l-6 -37q-8 -35 -12 -58.5t-7 -40t-4.5 -27.5t-1.5 -20q0 -45 24 -78.5t54 -33.5q23 0 49.5 23.5t81.5 86.5l13 13l-15 16q-37 -41 -58.5 -56.5t-37.5 -15.5q-20 0 -32.5 20.5t-12.5 53.5q0 14 4 42 t10 52l95 367l-95 -39l-10 -39q-39 57 -119 57q-57 0 -117.5 -39.5t-110.5 -103t-82 -139.5t-32 -150zM57 152q0 45 21.5 112.5t54.5 126.5q41 72 89 112t93 40q37 0 66 -21.5t41 -58.5l-8 -35q-10 -41 -19.5 -71.5t-19.5 -56.5t-21.5 -47.5t-25.5 -45.5q-47 -78 -98.5 -121 t-96.5 -43q-76 0 -76 109zM233 723l15 -12q43 43 71 43q14 0 37 -17l23 -18q12 -10 20 -13.5t21 -3.5q20 0 49.5 18.5t62.5 49.5l-14 14q-18 -20 -37.5 -31.5t-32.5 -11.5q-14 0 -39 19q-31 23 -41 27t-24 4q-23 0 -52.5 -18.5t-58.5 -49.5z" />
<glyph unicode="&#xe4;" horiz-adv-x="665" d="M-29 139q0 -72 34 -111.5t91 -39.5q94 0 199 131q35 45 57.5 82t40.5 84l-6 -37q-8 -35 -12 -58.5t-7 -40t-4.5 -27.5t-1.5 -20q0 -45 24 -78.5t54 -33.5q23 0 49.5 23.5t81.5 86.5l13 13l-15 16q-37 -41 -58.5 -56.5t-37.5 -15.5q-20 0 -32.5 20.5t-12.5 53.5q0 14 4 42 t10 52l95 367l-95 -39l-10 -39q-39 57 -119 57q-57 0 -117.5 -39.5t-110.5 -103t-82 -139.5t-32 -150zM57 152q0 45 21.5 112.5t54.5 126.5q41 72 89 112t93 40q37 0 66 -21.5t41 -58.5l-8 -35q-10 -41 -19.5 -71.5t-19.5 -56.5t-21.5 -47.5t-25.5 -45.5q-47 -78 -98.5 -121 t-96.5 -43q-76 0 -76 109zM272 745q0 -18 14.5 -32.5t34.5 -14.5q18 0 31.5 14.5t13.5 32.5q0 20 -13.5 34t-31.5 14q-20 0 -34.5 -13.5t-14.5 -34.5zM430 745q0 -18 13 -32.5t34 -14.5q18 0 32.5 14.5t14.5 32.5q0 20 -14.5 34t-32.5 14q-20 0 -33.5 -13.5t-13.5 -34.5z " />
<glyph unicode="&#xe5;" horiz-adv-x="665" d="M-29 139q0 -72 34 -111.5t91 -39.5q94 0 199 131q35 45 57.5 82t40.5 84l-6 -37q-8 -35 -12 -58.5t-7 -40t-4.5 -27.5t-1.5 -20q0 -45 24 -78.5t54 -33.5q23 0 49.5 23.5t81.5 86.5l13 13l-15 16q-37 -41 -58.5 -56.5t-37.5 -15.5q-20 0 -32.5 20.5t-12.5 53.5q0 14 4 42 t10 52l95 367l-95 -39l-10 -39q-39 57 -119 57q-57 0 -117.5 -39.5t-110.5 -103t-82 -139.5t-32 -150zM57 152q0 45 21.5 112.5t54.5 126.5q41 72 89 112t93 40q37 0 66 -21.5t41 -58.5l-8 -35q-10 -41 -19.5 -71.5t-19.5 -56.5t-21.5 -47.5t-25.5 -45.5q-47 -78 -98.5 -121 t-96.5 -43q-76 0 -76 109zM301 745q0 -33 22.5 -55t57.5 -22q33 0 55.5 22.5t22.5 54.5q0 35 -22.5 57.5t-55.5 22.5q-35 0 -57.5 -22.5t-22.5 -57.5zM332 745q0 23 13 36.5t36 13.5q20 0 33.5 -13.5t13.5 -36.5q0 -20 -13 -33.5t-36 -13.5q-20 0 -33.5 13.5t-13.5 33.5z " />
<glyph unicode="&#xe6;" horiz-adv-x="851" d="M-27 96q0 -53 32 -81.5t89 -28.5q68 0 132.5 50t109.5 138v-8q0 -80 49 -131t127 -51q70 0 133.5 41t110.5 116l-19 15q-90 -125 -188 -125q-57 0 -94 47t-37 119v10q63 20 120.5 53t100.5 72t67.5 82t24.5 82q0 37 -26.5 59.5t-67.5 22.5q-53 0 -102.5 -29t-88.5 -82 q-18 106 -141 106q-41 0 -76.5 -11t-64.5 -30.5t-45.5 -45t-16.5 -52.5q0 -45 45 -45q6 0 23 4q-2 10 -2 15v12q0 53 41 91t96 38q80 0 80 -88q0 -16 -1 -27.5t-9 -44.5q-4 -6 -6 -20q-186 -33 -291 -103.5t-105 -169.5zM55 111q0 47 34 93t93 77q43 25 90 40t88 19 q-33 -141 -95 -225t-134 -84q-33 0 -54.5 22.5t-21.5 57.5zM418 231q4 47 24.5 106.5t55.5 117.5q27 45 59.5 69.5t63.5 24.5q49 0 49 -45q0 -74 -92 -166q-37 -39 -70 -60.5t-90 -46.5z" />
<glyph unicode="&#xe7;" horiz-adv-x="489" d="M-27 178q0 -80 41 -131t113 -61l-51 -90l20 -11q10 8 27 9q27 0 27 -31q0 -29 -23 -50.5t-51 -21.5q-25 0 -45 16l-11 -18q29 -20 72 -20q47 0 76 26.5t29 67.5q0 27 -15.5 43t-40.5 16q-14 0 -24 -2l35 66q72 4 126 40.5t115 123.5l-14 12q-53 -68 -97 -96.5t-94 -28.5 q-55 0 -91 46t-36 120q0 61 19.5 123.5t50.5 112.5t70 82t75 32q23 0 38.5 -16.5t15.5 -42.5q0 -37 -18.5 -66t-47.5 -43q12 -12 27 -12q35 0 64.5 34.5t29.5 75.5t-27.5 68t-74.5 27q-53 0 -108.5 -36t-100.5 -93.5t-73 -129t-28 -141.5z" />
<glyph unicode="&#xe8;" horiz-adv-x="495" d="M-27 182q0 -90 48.5 -144t130.5 -54q68 0 126 36.5t121 120.5l-16 15q-53 -66 -96 -94.5t-90 -28.5q-59 0 -97.5 43t-38.5 112v19q145 53 229.5 130t84.5 155q0 39 -26.5 62.5t-67.5 23.5q-53 0 -107.5 -36t-99.5 -93.5t-73 -128t-28 -138.5zM61 231q6 59 28 117 t51.5 104t64.5 73.5t67 27.5q43 0 43 -47q0 -35 -23.5 -81t-64.5 -87q-31 -31 -69 -55.5t-97 -51.5zM178 815l99 -156l20 7l-59 168z" />
<glyph unicode="&#xe9;" horiz-adv-x="495" d="M-27 182q0 -90 48.5 -144t130.5 -54q68 0 126 36.5t121 120.5l-16 15q-53 -66 -96 -94.5t-90 -28.5q-59 0 -97.5 43t-38.5 112v19q145 53 229.5 130t84.5 155q0 39 -26.5 62.5t-67.5 23.5q-53 0 -107.5 -36t-99.5 -93.5t-73 -128t-28 -138.5zM61 231q6 59 28 117 t51.5 104t64.5 73.5t67 27.5q43 0 43 -47q0 -35 -23.5 -81t-64.5 -87q-31 -31 -69 -55.5t-97 -51.5zM205 668l21 -9l209 156l-66 19z" />
<glyph unicode="&#xea;" horiz-adv-x="495" d="M-27 182q0 -90 48.5 -144t130.5 -54q68 0 126 36.5t121 120.5l-16 15q-53 -66 -96 -94.5t-90 -28.5q-59 0 -97.5 43t-38.5 112v19q145 53 229.5 130t84.5 155q0 39 -26.5 62.5t-67.5 23.5q-53 0 -107.5 -36t-99.5 -93.5t-73 -128t-28 -138.5zM61 231q6 59 28 117 t51.5 104t64.5 73.5t67 27.5q43 0 43 -47q0 -35 -23.5 -81t-64.5 -87q-31 -31 -69 -55.5t-97 -51.5zM164 705l6 -15l136 47l116 -47l13 15l-117 98z" />
<glyph unicode="&#xeb;" horiz-adv-x="495" d="M-27 182q0 -90 48.5 -144t130.5 -54q68 0 126 36.5t121 120.5l-16 15q-53 -66 -96 -94.5t-90 -28.5q-59 0 -97.5 43t-38.5 112v19q145 53 229.5 130t84.5 155q0 39 -26.5 62.5t-67.5 23.5q-53 0 -107.5 -36t-99.5 -93.5t-73 -128t-28 -138.5zM61 231q6 59 28 117 t51.5 104t64.5 73.5t67 27.5q43 0 43 -47q0 -35 -23.5 -81t-64.5 -87q-31 -31 -69 -55.5t-97 -51.5zM176 745q0 -18 14.5 -32.5t34.5 -14.5q18 0 31.5 14.5t13.5 32.5q0 20 -13.5 34t-31.5 14q-20 0 -34.5 -13.5t-14.5 -34.5zM334 745q0 -18 13 -32.5t34 -14.5 q18 0 32.5 14.5t14.5 32.5q0 20 -14.5 34t-32.5 14q-20 0 -33.5 -13.5t-13.5 -34.5z" />
<glyph unicode="&#xec;" horiz-adv-x="294" d="M0 98q0 -45 21.5 -76.5t52.5 -31.5q12 0 23.5 5t26.5 17.5t35.5 34t49.5 55.5l8 11l-14 16q-70 -76 -101 -76q-16 0 -27.5 20.5t-11.5 53.5q0 20 6.5 58t14.5 71l90 330l-98 -41l-64 -350q-8 -37 -10 -58.5t-2 -38.5zM71 815l99 -156l20 7l-59 168z" />
<glyph unicode="&#xed;" horiz-adv-x="294" d="M0 98q0 -45 21.5 -76.5t52.5 -31.5q12 0 23.5 5t26.5 17.5t35.5 34t49.5 55.5l8 11l-14 16q-70 -76 -101 -76q-16 0 -27.5 20.5t-11.5 53.5q0 20 6.5 58t14.5 71l90 330l-98 -41l-64 -350q-8 -37 -10 -58.5t-2 -38.5zM71 668l21 -9l209 156l-66 19z" />
<glyph unicode="&#xee;" horiz-adv-x="294" d="M0 98q0 -45 21.5 -76.5t52.5 -31.5q12 0 23.5 5t26.5 17.5t35.5 34t49.5 55.5l8 11l-14 16q-70 -76 -101 -76q-16 0 -27.5 20.5t-11.5 53.5q0 20 6.5 58t14.5 71l90 330l-98 -41l-64 -350q-8 -37 -10 -58.5t-2 -38.5zM31 705l6 -15l136 47l116 -47l13 15l-117 98z" />
<glyph unicode="&#xef;" horiz-adv-x="294" d="M0 98q0 -45 21.5 -76.5t52.5 -31.5q12 0 23.5 5t26.5 17.5t35.5 34t49.5 55.5l8 11l-14 16q-70 -76 -101 -76q-16 0 -27.5 20.5t-11.5 53.5q0 20 6.5 58t14.5 71l90 330l-98 -41l-64 -350q-8 -37 -10 -58.5t-2 -38.5zM41 745q0 -18 14.5 -32.5t34.5 -14.5q18 0 31.5 14.5 t13.5 32.5q0 20 -13.5 34t-31.5 14q-20 0 -34.5 -13.5t-14.5 -34.5zM199 745q0 -18 13 -32.5t34 -14.5q18 0 32.5 14.5t14.5 32.5q0 20 -14.5 34t-32.5 14q-20 0 -33.5 -13.5t-13.5 -34.5z" />
<glyph unicode="&#xf1;" horiz-adv-x="663" d="M-16 -10l65 22l10 27q18 57 35 103t35 84t38.5 73t45.5 72q100 150 170 149q18 0 29.5 -12t11.5 -31q0 -10 -2 -29.5t-6 -41.5l-39 -211q-8 -35 -10 -57.5t-2 -39.5q0 -45 21.5 -76.5t51.5 -31.5q23 0 49.5 21.5t85.5 90.5l9 11l-15 16q-70 -76 -100 -76 q-16 0 -27.5 20.5t-11.5 51.5q0 29 14 92l11 39l28 123l13 41q10 45 10 65q0 41 -22.5 65.5t-61.5 24.5q-76 0 -158 -91t-164 -265l86 367l-96 -41zM192 723l15 -12q43 43 71 43q14 0 37 -17l23 -18q12 -10 20 -13.5t21 -3.5q20 0 49.5 18.5t62.5 49.5l-14 14 q-18 -20 -37.5 -31.5t-32.5 -11.5q-14 0 -39 19q-31 23 -41 27t-24 4q-23 0 -52.5 -18.5t-58.5 -49.5z" />
<glyph unicode="&#xf2;" horiz-adv-x="600" d="M-27 193q0 -96 51.5 -153.5t137.5 -57.5q61 0 120.5 33.5t105.5 89t75 125t29 143.5q0 90 -52.5 145t-136.5 55q-61 0 -119.5 -33.5t-105.5 -87t-76 -121.5t-29 -138zM61 162q0 66 24 144.5t60 137.5q33 51 71 79t79 28q47 0 76.5 -39t29.5 -100q0 -66 -20.5 -145 t-52.5 -138q-66 -123 -154 -123q-53 0 -83 41t-30 115zM233 815l99 -156l20 7l-59 168z" />
<glyph unicode="&#xf3;" horiz-adv-x="600" d="M-27 193q0 -96 51.5 -153.5t137.5 -57.5q61 0 120.5 33.5t105.5 89t75 125t29 143.5q0 90 -52.5 145t-136.5 55q-61 0 -119.5 -33.5t-105.5 -87t-76 -121.5t-29 -138zM61 162q0 66 24 144.5t60 137.5q33 51 71 79t79 28q47 0 76.5 -39t29.5 -100q0 -66 -20.5 -145 t-52.5 -138q-66 -123 -154 -123q-53 0 -83 41t-30 115zM260 668l21 -9l209 156l-66 19z" />
<glyph unicode="&#xf4;" horiz-adv-x="600" d="M-27 193q0 -96 51.5 -153.5t137.5 -57.5q61 0 120.5 33.5t105.5 89t75 125t29 143.5q0 90 -52.5 145t-136.5 55q-61 0 -119.5 -33.5t-105.5 -87t-76 -121.5t-29 -138zM61 162q0 66 24 144.5t60 137.5q33 51 71 79t79 28q47 0 76.5 -39t29.5 -100q0 -66 -20.5 -145 t-52.5 -138q-66 -123 -154 -123q-53 0 -83 41t-30 115zM205 705l6 -15l136 47l116 -47l13 15l-117 98z" />
<glyph unicode="&#xf5;" horiz-adv-x="600" d="M-27 193q0 -96 51.5 -153.5t137.5 -57.5q61 0 120.5 33.5t105.5 89t75 125t29 143.5q0 90 -52.5 145t-136.5 55q-61 0 -119.5 -33.5t-105.5 -87t-76 -121.5t-29 -138zM61 162q0 66 24 144.5t60 137.5q33 51 71 79t79 28q47 0 76.5 -39t29.5 -100q0 -66 -20.5 -145 t-52.5 -138q-66 -123 -154 -123q-53 0 -83 41t-30 115zM205 723l15 -12q43 43 71 43q14 0 37 -17l23 -18q12 -10 20 -13.5t21 -3.5q20 0 49.5 18.5t62.5 49.5l-14 14q-18 -20 -37.5 -31.5t-32.5 -11.5q-14 0 -39 19q-31 23 -41 27t-24 4q-23 0 -52.5 -18.5t-58.5 -49.5z" />
<glyph unicode="&#xf6;" horiz-adv-x="600" d="M-27 193q0 -96 51.5 -153.5t137.5 -57.5q61 0 120.5 33.5t105.5 89t75 125t29 143.5q0 90 -52.5 145t-136.5 55q-61 0 -119.5 -33.5t-105.5 -87t-76 -121.5t-29 -138zM61 162q0 66 24 144.5t60 137.5q33 51 71 79t79 28q47 0 76.5 -39t29.5 -100q0 -66 -20.5 -145 t-52.5 -138q-66 -123 -154 -123q-53 0 -83 41t-30 115zM217 745q0 -18 14.5 -32.5t34.5 -14.5q18 0 31.5 14.5t13.5 32.5q0 20 -13.5 34t-31.5 14q-20 0 -34.5 -13.5t-14.5 -34.5zM375 745q0 -18 13 -32.5t34 -14.5q18 0 32.5 14.5t14.5 32.5q0 20 -14.5 34t-32.5 14 q-20 0 -33.5 -13.5t-13.5 -34.5z" />
<glyph unicode="&#xf7;" d="M68 0h684v1366h-684v-1366zM82 14v1338h655v-1338h-655z" />
<glyph unicode="&#xf8;" horiz-adv-x="600" d="M-94 -8l18 -21l90 84q51 -74 148 -73q61 0 120.5 33.5t105.5 89t75 125t29 143.5q0 66 -27 110l94 90l-20 21l-93 -86q-53 66 -143 65q-61 0 -119.5 -33.5t-105.5 -87t-76 -123t-29 -139.5q0 -66 25 -110zM61 141v21q0 53 15.5 114.5t42.5 120.5q35 74 81 114t95 40 q37 0 63.5 -24.5t36.5 -67.5zM66 104l335 320v-12q0 -66 -20.5 -145t-52.5 -138q-66 -123 -154 -123q-41 0 -69.5 25.5t-38.5 72.5z" />
<glyph unicode="&#xf9;" horiz-adv-x="616" d="M0 96q0 -49 29.5 -77.5t83.5 -28.5q102 0 206 137q-2 -10 -2 -16v-13q0 -45 21.5 -76.5t52.5 -31.5q23 0 49.5 21.5t85.5 90.5l9 11l-15 16q-70 -76 -100 -76q-18 0 -28.5 20.5t-10.5 53.5q0 20 5 58t15 71l88 330l-96 -41l-63 -350q-2 -6 -2 -11q0 -2 -2 -6l-4 -6 q-90 -139 -177 -139q-37 0 -58 21.5t-21 56.5q0 18 3 37.5t11 50.5l96 387l-96 -41l-70 -355q-4 -29 -7 -51t-3 -43zM205 815l99 -156l20 7l-59 168z" />
<glyph unicode="&#xfa;" horiz-adv-x="616" d="M0 96q0 -49 29.5 -77.5t83.5 -28.5q102 0 206 137q-2 -10 -2 -16v-13q0 -45 21.5 -76.5t52.5 -31.5q23 0 49.5 21.5t85.5 90.5l9 11l-15 16q-70 -76 -100 -76q-18 0 -28.5 20.5t-10.5 53.5q0 20 5 58t15 71l88 330l-96 -41l-63 -350q-2 -6 -2 -11q0 -2 -2 -6l-4 -6 q-90 -139 -177 -139q-37 0 -58 21.5t-21 56.5q0 18 3 37.5t11 50.5l96 387l-96 -41l-70 -355q-4 -29 -7 -51t-3 -43zM246 668l21 -9l209 156l-66 19z" />
<glyph unicode="&#xfb;" horiz-adv-x="616" d="M0 96q0 -49 29.5 -77.5t83.5 -28.5q102 0 206 137q-2 -10 -2 -16v-13q0 -45 21.5 -76.5t52.5 -31.5q23 0 49.5 21.5t85.5 90.5l9 11l-15 16q-70 -76 -100 -76q-18 0 -28.5 20.5t-10.5 53.5q0 20 5 58t15 71l88 330l-96 -41l-63 -350q-2 -6 -2 -11q0 -2 -2 -6l-4 -6 q-90 -139 -177 -139q-37 0 -58 21.5t-21 56.5q0 18 3 37.5t11 50.5l96 387l-96 -41l-70 -355q-4 -29 -7 -51t-3 -43zM164 705l6 -15l136 47l116 -47l13 15l-117 98z" />
<glyph unicode="&#xfc;" horiz-adv-x="616" d="M0 96q0 -49 29.5 -77.5t83.5 -28.5q102 0 206 137q-2 -10 -2 -16v-13q0 -45 21.5 -76.5t52.5 -31.5q23 0 49.5 21.5t85.5 90.5l9 11l-15 16q-70 -76 -100 -76q-18 0 -28.5 20.5t-10.5 53.5q0 20 5 58t15 71l88 330l-96 -41l-63 -350q-2 -6 -2 -11q0 -2 -2 -6l-4 -6 q-90 -139 -177 -139q-37 0 -58 21.5t-21 56.5q0 18 3 37.5t11 50.5l96 387l-96 -41l-70 -355q-4 -29 -7 -51t-3 -43zM188 745q0 -18 14.5 -32.5t34.5 -14.5q18 0 31.5 14.5t13.5 32.5q0 20 -13.5 34t-31.5 14q-20 0 -34.5 -13.5t-14.5 -34.5zM346 745q0 -18 13 -32.5 t34 -14.5q18 0 32.5 14.5t14.5 32.5q0 20 -14.5 34t-32.5 14q-20 0 -33.5 -13.5t-13.5 -34.5z" />
<glyph unicode="&#xff;" horiz-adv-x="598" d="M-117 -354q51 -41 129 -41q143 0 240 127q16 20 29.5 42.5t25.5 53.5t23.5 73t25.5 97l146 588l-94 -41l-86 -383q-57 -68 -100.5 -98.5t-80.5 -30.5q-33 0 -54 20.5t-21 55.5q0 14 3 29.5t9 43.5l96 404l-96 -41l-68 -361q-10 -47 -10 -78q0 -55 29.5 -86.5t83.5 -31.5 q88 0 198 129l-47 -207q-31 -139 -77 -199.5t-124 -60.5q-76 0 -131 61zM211 745q0 -18 14.5 -32.5t34.5 -14.5q18 0 31.5 14.5t13.5 32.5q0 20 -13.5 34t-31.5 14q-20 0 -34.5 -13.5t-14.5 -34.5zM369 745q0 -18 13 -32.5t34 -14.5q18 0 32.5 14.5t14.5 32.5q0 20 -14.5 34 t-32.5 14q-20 0 -33.5 -13.5t-13.5 -34.5z" />
<glyph unicode="&#x152;" d="M68 0h684v1366h-684v-1366zM82 14v1338h655v-1338h-655z" />
<glyph unicode="&#x153;" horiz-adv-x="890" d="M-27 186q0 -92 53.5 -148t139.5 -56q63 0 124.5 39.5t92.5 99.5q29 -137 168 -137q144 -1 244 157l-17 15q-92 -125 -190 -125q-37 0 -68 20.5t-47 52.5q-16 35 -16 103q63 18 119.5 50t99.5 70t67.5 80t24.5 80q0 41 -26.5 66t-67.5 25q-59 0 -116.5 -39t-92.5 -105 q-31 139 -166 139q-61 0 -120.5 -32.5t-104.5 -87t-73 -124t-28 -143.5zM61 160q0 68 24 148.5t58 140.5q31 47 69 74.5t79 27.5q47 0 76.5 -38t29.5 -101q0 -74 -19.5 -146.5t-52 -130t-72.5 -92.5t-83 -35q-53 0 -81 40t-28 112zM457 231q8 63 30.5 121t51 102t61.5 69.5 t66 25.5q18 0 30.5 -12.5t12.5 -32.5q0 -35 -23.5 -81t-67.5 -87q-35 -35 -68.5 -56.5t-92.5 -48.5z" />
<glyph unicode="&#x178;" d="M68 0h684v1366h-684v-1366zM82 14v1338h655v-1338h-655z" />
<glyph unicode="&#x2c6;" horiz-adv-x="542" d="M137 705l6 -15l136 47l116 -47l13 15l-117 98z" />
<glyph unicode="&#x2dc;" horiz-adv-x="573" d="M137 723l15 -12q43 43 71 43q14 0 37 -17l23 -18q12 -10 20 -13.5t21 -3.5q20 0 49.5 18.5t62.5 49.5l-14 14q-18 -20 -37.5 -31.5t-32.5 -11.5q-14 0 -39 19q-31 23 -41 27t-24 4q-23 0 -52.5 -18.5t-58.5 -49.5z" />
<glyph unicode="&#x2000;" horiz-adv-x="728" />
<glyph unicode="&#x2001;" horiz-adv-x="1456" />
<glyph unicode="&#x2002;" horiz-adv-x="728" />
<glyph unicode="&#x2003;" horiz-adv-x="1456" />
<glyph unicode="&#x2004;" horiz-adv-x="485" />
<glyph unicode="&#x2005;" horiz-adv-x="364" />
<glyph unicode="&#x2006;" horiz-adv-x="242" />
<glyph unicode="&#x2007;" horiz-adv-x="242" />
<glyph unicode="&#x2008;" horiz-adv-x="182" />
<glyph unicode="&#x2009;" horiz-adv-x="291" />
<glyph unicode="&#x200a;" horiz-adv-x="80" />
<glyph unicode="&#x2010;" horiz-adv-x="485" d="M47 283h246l8 45h-244z" />
<glyph unicode="&#x2011;" horiz-adv-x="485" d="M47 283h246l8 45h-244z" />
<glyph unicode="&#x2012;" horiz-adv-x="485" d="M47 283h246l8 45h-244z" />
<glyph unicode="&#x2013;" horiz-adv-x="833" d="M47 283h594l8 45h-592z" />
<glyph unicode="&#x2014;" horiz-adv-x="2279" d="M47 283h2040l8 45h-2038z" />
<glyph unicode="&#x2018;" horiz-adv-x="475" d="M260 1126q0 -33 18.5 -52t47.5 -19q31 0 51 22.5t20 55.5q0 49 -47 49q-25 0 -47 -23q4 37 39 81t100 97l-12 23q-76 -53 -123 -117.5t-47 -116.5z" />
<glyph unicode="&#x2019;" horiz-adv-x="475" d="M238 1055l12 -23q76 53 122 117.5t46 116.5q0 33 -17.5 52t-46.5 19t-51 -22.5t-22 -54.5q0 -49 51 -50q25 0 45 21q-6 -72 -139 -176z" />
<glyph unicode="&#x201a;" d="M68 0h684v1366h-684v-1366zM82 14v1338h655v-1338h-655z" />
<glyph unicode="&#x201c;" horiz-adv-x="647" d="M262 1126q0 -33 17.5 -52t46.5 -19q31 0 51 22.5t20 55.5q0 49 -47 49q-25 0 -47 -23q4 37 39 81t100 97l-12 23q-76 -53 -122 -117.5t-46 -116.5zM434 1126q0 -33 17.5 -52t46.5 -19q31 0 52 22.5t21 55.5q0 23 -13 36t-36 13q-25 0 -47 -23q8 74 139 178l-12 23 q-76 -53 -122 -117.5t-46 -116.5z" />
<glyph unicode="&#x201d;" horiz-adv-x="647" d="M238 1055l12 -23q76 53 122 117.5t46 116.5q0 33 -17.5 52t-46.5 19t-50 -22.5t-21 -54.5q0 -49 49 -50q25 0 45 21q-6 -72 -139 -176zM410 1055l14 -23q74 53 121 117.5t47 116.5q0 33 -18.5 52t-47.5 19t-50 -22.5t-21 -54.5q0 -49 49 -50q27 0 45 21q-6 -72 -139 -176 z" />
<glyph unicode="&#x201e;" horiz-adv-x="647" d="M8 -125l15 -22q76 53 120.5 117.5t44.5 115.5q0 33 -17 52.5t-46 19.5t-50.5 -22.5t-21.5 -55.5q0 -49 49 -49q25 0 45 20q-6 -70 -139 -176zM180 -125l15 -22q76 53 121.5 117.5t45.5 115.5q0 33 -18 52.5t-47 19.5t-50.5 -22.5t-21.5 -55.5q0 -49 49 -49q14 0 23.5 4 t24.5 16q-8 -72 -142 -176z" />
<glyph unicode="&#x2022;" horiz-adv-x="507" d="M109 682q0 -57 40.5 -97t98.5 -40q57 0 97 40t40 97q0 59 -40 99t-97 40t-98 -40t-41 -99z" />
<glyph unicode="&#x2026;" horiz-adv-x="2048" d="M150 59q0 -70 69 -69q35 0 60.5 27.5t25.5 68.5q0 33 -19.5 53.5t-49.5 20.5q-35 0 -60.5 -30t-25.5 -71zM834 59q0 -70 69 -69q35 0 60.5 27.5t25.5 68.5q0 33 -19.5 53.5t-51.5 20.5q-35 0 -59.5 -30t-24.5 -71zM1516 59q0 -70 69 -69q35 0 60.5 27.5t25.5 68.5 q0 33 -19.5 53.5t-49.5 20.5q-35 0 -60.5 -30t-25.5 -71z" />
<glyph unicode="&#x202f;" horiz-adv-x="291" />
<glyph unicode="&#x2039;" horiz-adv-x="393" d="M20 305q37 -41 66 -95t43 -110h16l-32 205l125 203h-19q-41 -53 -93 -105.5t-106 -97.5z" />
<glyph unicode="&#x203a;" horiz-adv-x="393" d="M20 100h19q47 57 96 109.5t103 95.5q-39 41 -67 94.5t-42 108.5h-16l30 -203z" />
<glyph unicode="&#x205f;" horiz-adv-x="364" />
<glyph unicode="&#x2122;" d="M68 0h684v1366h-684v-1366zM82 14v1338h655v-1338h-655z" />
<glyph unicode="&#x25fc;" horiz-adv-x="583" d="M0 0v584h584v-584h-584z" />
<glyph unicode="&#xfb01;" horiz-adv-x="606" d="M-342 -379q23 -10 39 -13t45 -3q92 0 174 88q23 23 39 47t29.5 55t26 73t26.5 99l137 565h209l-61 -337q-6 -37 -9.5 -58.5t-3.5 -38.5q0 -45 22.5 -76.5t51.5 -31.5q12 0 23.5 5t27 17.5t35.5 34t49 55.5l10 11l-16 16q-35 -41 -58.5 -57.5t-39.5 -16.5 q-18 0 -29.5 19.5t-11.5 52.5q0 20 6 58t16 71l84 311h-297l154 635q23 86 51.5 122t75.5 36q63 0 102 -57l37 92q-39 14 -80 14q-127 0 -215 -117q-35 -47 -60.5 -111.5t-47.5 -172.5l-95 -441h-98l-6 -35h96l-129 -604q-12 -53 -28.5 -109.5t-28.5 -80.5q-39 -80 -111 -80 q-27 0 -47 8t-45 27zM455 920q0 -25 16 -42.5t41 -17.5t42 17.5t17 42.5q0 23 -17 40t-42 17t-41 -17.5t-16 -39.5z" />
<glyph unicode="&#xfb02;" horiz-adv-x="626" d="M-342 -379q20 -10 37.5 -13t46.5 -3q92 0 174 88q20 23 36.5 46t31 54t27 71t26.5 95l2 14l137 559h162l6 35h-160l97 398l41 172q16 70 31.5 114.5t32.5 70.5t40 36t53 10q51 0 99 -33l-228 -1140q-4 -27 -8 -54.5t-4 -42.5q0 -45 22.5 -76.5t53.5 -31.5q12 0 23.5 5 t25.5 17.5t34.5 34t49.5 55.5l10 11l-16 16q-35 -41 -58.5 -57.5t-40.5 -16.5q-18 0 -29.5 19.5t-11.5 48.5q0 35 13 94l10 39l254 1118q-35 18 -66.5 27.5t-68.5 9.5q-156 0 -244 -129q-16 -23 -29.5 -47.5t-23.5 -54t-20.5 -68.5t-22.5 -92l-99 -453h-98l-6 -35h98 l-129 -598q-10 -37 -23.5 -89t-23.5 -76q-41 -111 -123 -111q-27 0 -47 8t-45 27z" />
</font>
</defs>
</svg>
