<?xml version="1.0" encoding="utf-8"?>
<!-- Generator: Adobe Illustrator 16.0.0, SVG Export Plug-In . SVG Version: 6.00 Build 0)  -->
<!DOCTYPE svg PUBLIC "-//W3C//DTD SVG 1.1//EN" "http://www.w3.org/Graphics/SVG/1.1/DTD/svg11.dtd">
<svg version="1.1" id="Layer_3" xmlns="http://www.w3.org/2000/svg" xmlns:xlink="http://www.w3.org/1999/xlink" x="0px" y="0px"
	 width="32px" height="32px" viewBox="0 0 32 32" enable-background="new 0 0 32 32" xml:space="preserve">
<g>
	<path d="M23.786,25.557h-3.161c-0.113,0-0.207-0.092-0.207-0.206V24.58c0-0.113-0.093-0.207-0.207-0.207h-4.422
		c-0.114,0-0.207,0.094-0.207,0.207v0.771c0,0.114-0.095,0.206-0.208,0.206h-2.376c-0.115,0-0.208,0.094-0.208,0.209v0.889
		c0,0.115,0.093,0.207,0.208,0.207h10.789c0.114,0,0.208-0.092,0.208-0.207v-0.889C23.994,25.651,23.9,25.557,23.786,25.557z"/>
	<g>
		<path d="M29.099,4.747H6.541c-0.784,0-1.423,0.639-1.423,1.424c0,0,0,2.714,0,3.711c0,0.492-0.036,0.561,0.293,0.561
			c0.174,0,0.369,0,0.565,0c0.276,0,0.22-0.069,0.22-0.569c0-0.997,0-3.704,0-3.704c0-0.188,0.159-0.347,0.345-0.347h22.558
			c0.187,0,0.344,0.159,0.344,0.347v13.896h-16.08c0,0-0.567-0.002-0.567,0.731c0,0.437,0,1.304,0,1.737
			c0,0.734,0.585,0.734,0.585,0.734h15.718c0.783,0,1.423-0.639,1.423-1.424V6.171C30.521,5.386,29.882,4.747,29.099,4.747z
			 M17.82,22.039c-0.355,0-0.643-0.288-0.643-0.642s0.287-0.642,0.643-0.642c0.353,0,0.641,0.288,0.641,0.642
			S18.173,22.039,17.82,22.039z"/>
		<path d="M10.601,11.714H2.44c-0.506,0-0.918,0.412-0.918,0.919v13.411c0,0.507,0.412,0.918,0.918,0.918h8.16
			c0.505,0,0.917-0.411,0.917-0.918V12.634C11.518,12.126,11.106,11.714,10.601,11.714z M5.513,12.651h2.014
			c0.096,0,0.174,0.078,0.174,0.174C7.701,12.922,7.623,13,7.527,13H5.513c-0.095,0-0.172-0.078-0.172-0.174
			C5.341,12.729,5.418,12.651,5.513,12.651z M6.508,26.319c-0.263,0-0.475-0.214-0.475-0.477s0.212-0.475,0.475-0.475
			s0.476,0.212,0.476,0.475S6.771,26.319,6.508,26.319z M10.729,24.921c0,0.123-0.098,0.223-0.217,0.223H2.529
			c-0.12,0-0.218-0.1-0.218-0.223V13.776c0-0.122,0.098-0.223,0.218-0.223h7.982c0.12,0,0.217,0.101,0.217,0.223V24.921z"/>
	</g>
</g>
</svg>
