<?xml version="1.0" encoding="utf-8"?>
<!-- Generator: Adobe Illustrator 16.0.0, SVG Export Plug-In . SVG Version: 6.00 Build 0)  -->
<!DOCTYPE svg PUBLIC "-//W3C//DTD SVG 1.1//EN" "http://www.w3.org/Graphics/SVG/1.1/DTD/svg11.dtd">
<svg version="1.1" id="Layer_2" xmlns="http://www.w3.org/2000/svg" xmlns:xlink="http://www.w3.org/1999/xlink" x="0px" y="0px"
	 width="32px" height="32px" viewBox="0 0 32 32" enable-background="new 0 0 32 32" xml:space="preserve">
<g>
	<path id="LinkedIn" d="M26.292,17.068v7.055h-4.091v-6.582c0-1.654-0.591-2.783-2.071-2.783c-1.131,0-1.803,0.76-2.1,1.497
		c-0.107,0.263-0.136,0.629-0.136,0.997v6.871h-4.091c0,0,0.055-11.149,0-12.304h4.091v1.744c-0.009,0.013-0.019,0.027-0.027,0.04
		h0.027v-0.04c0.544-0.837,1.515-2.033,3.687-2.033C24.273,11.53,26.292,13.289,26.292,17.068z M9.523,5.888
		c-1.4,0-2.315,0.918-2.315,2.125c0,1.181,0.889,2.127,2.261,2.127h0.028c1.427,0,2.314-0.946,2.314-2.127
		C11.784,6.806,10.923,5.888,9.523,5.888z M7.451,24.123h4.09V11.819h-4.09V24.123z"/>
</g>
<circle fill="none" stroke="#000000" stroke-miterlimit="10" cx="16" cy="16" r="15"/>
</svg>
